<?xml version="1.0" encoding="UTF-8"?>
<svg version="1.1" xmlns="http://www.w3.org/2000/svg" width="1920" height="547">
<path d="M0 0 C0.66 0 1.32 0 2 0 C8.34881142 14.23182395 14.31455028 28.59813046 20.13967896 43.04977417 C25.88798694 57.30790924 31.7604594 71.51087689 37.69523621 85.69230652 C38.83518037 88.41750652 39.97306003 91.14356509 41.11035156 93.86987305 C41.73355961 95.36204928 42.35801404 96.85370529 42.98339844 98.3449707 C43.97147929 100.7025431 44.9549149 103.06200769 45.9375 105.421875 C46.24437744 106.15134338 46.55125488 106.88081177 46.86743164 107.63238525 C49 112.77226821 49 112.77226821 49 115 C49.66922391 114.99166421 50.33844782 114.98332842 51.02795124 114.97474003 C57.64359736 114.9283123 64.16712571 115.19913517 70.76049805 115.71850586 C72.27981934 115.83313927 72.27981934 115.83313927 73.82983398 115.9500885 C77.14078513 116.20095736 80.45124402 116.45777076 83.76171875 116.71484375 C86.08093447 116.89211885 88.4001742 117.06908004 90.71943665 117.2457428 C95.5635662 117.61560091 100.40747172 117.98822857 105.2512207 118.36303711 C111.44782412 118.84245006 117.64482352 119.31649037 123.84198284 119.78865719 C128.62484342 120.15339432 133.40754486 120.52018244 138.19019508 120.8876667 C140.4750305 121.06313148 142.75990035 121.23814856 145.04480553 121.41270256 C148.23925357 121.65720925 151.43349269 121.90428421 154.62768555 122.15209961 C155.56346939 122.22331024 156.49925323 122.29452087 157.46339417 122.3678894 C162.66645344 122.7746645 167.82665903 123.3100532 173 124 C171.42424871 128.28281121 168.16182879 130.68513761 164.75 133.5 C163.47509723 134.57142043 162.2003623 135.64304061 160.92578125 136.71484375 C160.27303223 137.25995605 159.6202832 137.80506836 158.94775391 138.36669922 C155.92096501 140.90483129 152.93090273 143.4851752 149.9375 146.0625 C144.94341087 150.34791204 139.92792575 154.60724668 134.89868164 158.85131836 C130.87117187 162.25329044 126.87091283 165.68601071 122.875 169.125 C118.7131582 172.70626602 114.51730831 176.2315813 110.25 179.6875 C105.8835541 183.23044953 101.71146063 186.94164128 97.5546875 190.7265625 C91.92165199 195.73944731 86.06316516 200.51607786 80 205 C80.64116007 211.06840495 81.80438186 216.83870035 83.26904297 222.75805664 C83.49845581 223.70073395 83.72786865 224.64341125 83.9642334 225.61465454 C84.46040422 227.65084328 84.95864072 229.68652956 85.45873642 231.72175789 C86.25340734 234.95581746 87.04265449 238.19115961 87.83059692 241.42686462 C89.22311053 247.14136464 90.62041816 252.85467973 92.01928711 258.56762695 C94.25158603 267.68470513 96.47965058 276.80280737 98.70193863 285.92233086 C99.47411325 289.08610202 100.25019371 292.24889672 101.02658081 295.41163635 C103.59155771 305.90181623 106.0180488 316.38246029 108 327 C104.94555871 326.28921572 102.66153546 325.36653514 99.97265625 323.734375 C98.80162354 323.02812988 98.80162354 323.02812988 97.60693359 322.30761719 C96.76727051 321.79360352 95.92760742 321.27958984 95.0625 320.75 C94.17643066 320.2127832 93.29036133 319.67556641 92.37744141 319.12207031 C84.42129826 314.28700006 76.50600048 309.38539365 68.59765625 304.47265625 C62.51301115 300.69399953 56.41352724 296.93963175 50.3125 293.1875 C49.23419922 292.52419678 48.15589844 291.86089355 47.04492188 291.17749023 C43.69675873 289.11809237 40.34840608 287.05900283 37 285 C32.85782844 282.45283949 28.7158067 279.90543578 24.57406616 277.35757446 C22.92492851 276.3432104 21.27557792 275.32919256 19.6262207 274.31518555 C18.61261475 273.69168213 17.59900879 273.06817871 16.5546875 272.42578125 C15.12141113 271.55107178 15.12141113 271.55107178 13.65917969 270.65869141 C11.97168802 269.60610066 10.3026146 268.52289521 8.66113281 267.39990234 C7.97116211 266.93148926 7.28119141 266.46307617 6.5703125 265.98046875 C5.7043042 265.36594849 5.7043042 265.36594849 4.82080078 264.73901367 C2.20513767 263.67738693 0.67137467 264.18679614 -2 265 C-4.33126332 266.09896055 -4.33126332 266.09896055 -6.6328125 267.51953125 C-7.51122803 268.04087646 -8.38964355 268.56222168 -9.29467773 269.09936523 C-10.22868408 269.66469971 -11.16269043 270.23003418 -12.125 270.8125 C-13.59271851 271.69047241 -13.59271851 271.69047241 -15.09008789 272.58618164 C-22.03868479 276.76231594 -28.91106605 281.05225722 -35.74707031 285.40966797 C-41.90853171 289.33257599 -48.12937712 293.15020515 -54.375 296.9375 C-61.91518766 301.51088087 -69.43992835 306.10703996 -76.9375 310.75 C-77.79569336 311.27988525 -78.65388672 311.80977051 -79.53808594 312.35571289 C-83.63662672 314.8915375 -87.71562282 317.45150743 -91.76171875 320.0703125 C-92.50107666 320.54500977 -93.24043457 321.01970703 -94.00219727 321.50878906 C-95.37947245 322.39518721 -96.75143751 323.28991216 -98.11694336 324.19433594 C-99.69702358 325.20791657 -101.34444018 326.11505882 -103 327 C-103.99 326.67 -104.98 326.34 -106 326 C-105.8556955 325.40677602 -105.71139099 324.81355204 -105.56271362 324.20235157 C-102.05117403 309.76498678 -98.54595576 295.32609841 -95.04776001 280.88549519 C-93.3559041 273.9021546 -91.66191582 266.91934425 -89.96289062 259.93774414 C-88.48195372 253.85228441 -87.00503445 247.76586615 -85.53292274 241.67826527 C-84.75337947 238.45524465 -83.97124185 235.23288989 -83.18548584 232.01137733 C-82.30846235 228.41419925 -81.43855047 224.81537157 -80.5703125 221.21606445 C-80.30849182 220.14935516 -80.04667114 219.08264587 -79.7769165 217.98361206 C-79.54132019 217.00069687 -79.30572388 216.01778168 -79.06298828 215.00508118 C-78.85650665 214.15426625 -78.65002502 213.30345133 -78.43728638 212.42685413 C-77.97135654 209.84103439 -77.74748708 207.61918415 -78 205 C-79.99870885 202.90712706 -81.87239561 201.21431457 -84.125 199.4375 C-85.41573236 198.37805208 -86.70608638 197.31814307 -87.99609375 196.2578125 C-88.66108887 195.71930664 -89.32608398 195.18080078 -90.01123047 194.62597656 C-93.12256906 192.08221091 -96.15023102 189.44378482 -99.1875 186.8125 C-103.3273587 183.25109674 -107.50634791 179.75039536 -111.75 176.3125 C-116.13151795 172.75732096 -120.31710681 169.03230463 -124.48828125 165.234375 C-127.88457506 162.21309963 -131.4159298 159.37424067 -134.94921875 156.515625 C-138.52056516 153.57075037 -142.01214003 150.54282537 -145.5 147.5 C-151.5701738 142.20669812 -157.74679294 137.0762532 -164 132 C-166.39972148 130.04996363 -168.71244269 128.08421888 -171 126 C-171 125.34 -171 124.68 -171 124 C-141.34140187 121.47942643 -111.67358219 119.0864445 -82 116.75 C-81.13229477 116.68167717 -80.26458954 116.61335434 -79.37059021 116.54296112 C-68.58053356 115.69352124 -57.79033453 114.84590259 -47 114 C-46.57172913 112.95437897 -46.14345825 111.90875793 -45.70220947 110.83145142 C-34.52044718 83.53264542 -23.27454964 56.26060179 -12 29 C-11.4935495 27.77543091 -11.4935495 27.77543091 -10.97686768 26.52612305 C-7.31960811 17.68337972 -3.66093999 8.84122035 0 0 Z " fill="#FFBC37" transform="translate(571,110)"/>
<path d="M0 0 C0.99 0.33 1.98 0.66 3 1 C4.33036663 3.69203375 5.46969747 6.31695905 6.5625 9.10546875 C6.90624161 9.95590256 7.24998322 10.80633636 7.60414124 11.68254089 C8.74611644 14.51360787 9.87277047 17.35053333 11 20.1875 C11.79616551 22.1673443 12.5936301 24.14666664 13.39233398 26.12548828 C14.64341627 29.22545582 15.89367375 32.32572887 17.13999939 35.4276123 C21.70135972 46.77634328 26.37961216 58.07600976 31.0625 69.375 C33.6650127 75.6608373 36.26407171 81.94808824 38.85870361 88.23718262 C39.65853407 90.17338912 40.4598932 92.10896453 41.26239014 94.04406738 C42.53100287 97.10358195 43.79516129 100.16490572 45.05859375 103.2265625 C45.45337418 104.17566498 45.8481546 105.12476746 46.25489807 106.10263062 C46.79472572 107.41428696 46.79472572 107.41428696 47.34545898 108.75244141 C47.66562485 109.52600983 47.98579071 110.29957825 48.31565857 111.09658813 C49 113 49 113 49 115 C49.88797272 114.9701577 49.88797272 114.9701577 50.79388428 114.93971252 C62.11384551 114.74518036 73.36541808 115.82841356 84.640625 116.71484375 C86.93598805 116.89215693 89.23137837 117.06911735 91.52679443 117.2457428 C96.31789143 117.61535323 101.10873977 117.9879883 105.89941406 118.36303711 C112.02758348 118.84272429 118.15617721 119.31670192 124.28494644 119.78865719 C129.01719513 120.15337969 133.74928202 120.52016493 138.48131561 120.8876667 C140.74103356 121.0630968 143.00078362 121.23811365 145.26056671 121.41270256 C148.41898374 121.65722227 151.57719149 121.90428591 154.73535156 122.15209961 C155.66021362 122.22331024 156.58507568 122.29452087 157.53796387 122.3678894 C162.71550778 122.77726362 167.85149957 123.31474184 173 124 C171.70118388 126.91696199 170.41209595 128.7864651 167.98046875 130.84765625 C167.37710693 131.36465088 166.77374512 131.88164551 166.15209961 132.41430664 C165.50378174 132.95821045 164.85546387 133.50211426 164.1875 134.0625 C163.51533447 134.63540771 162.84316895 135.20831543 162.15063477 135.79858398 C160.10584502 137.53890745 158.05366959 139.27017057 156 141 C154.86942502 141.95790076 153.73919142 142.91620466 152.609375 143.875 C150.49094688 145.67115007 148.36943191 147.46356452 146.24609375 149.25390625 C142.8149422 152.15092901 139.40655432 155.07412801 136 158 C130.98366277 162.3077251 125.94677847 166.58994615 120.89453125 170.85546875 C116.32468203 174.71715731 111.78229195 178.61026105 107.24365234 182.50854492 C102.68149688 186.42396047 98.09646051 190.31155416 93.49682617 194.18286133 C89.75983139 197.33448071 86.09594867 200.55680925 82.48828125 203.85546875 C81 205 81 205 79 205 C79.39011009 206.59469368 79.39011009 206.59469368 79.7881012 208.22160339 C82.27341058 218.38131472 84.75824456 228.54114222 87.24264622 238.70107555 C88.51903929 243.92080867 89.79558365 249.14050468 91.07250977 254.36010742 C93.7333746 265.2371257 96.39227505 276.11461777 99.04583168 286.99342155 C100.27453718 292.03024107 101.50586957 297.06640259 102.74049091 302.10177517 C103.56796175 305.4799564 104.39111848 308.85918481 105.21484375 312.23828125 C105.504767 313.41641891 105.79469025 314.59455658 106.09339905 315.80839539 C106.34995773 316.86460587 106.60651642 317.92081635 106.87084961 319.0090332 C107.20154701 320.36095512 107.20154701 320.36095512 107.53892517 321.7401886 C108 324 108 324 108 327 C104.2278765 326.33244708 101.46880135 324.63027236 98.22265625 322.640625 C97.66415482 322.30020676 97.10565338 321.95978851 96.53022766 321.60905457 C94.70450611 320.49442158 92.88349448 319.37233605 91.0625 318.25 C89.78817011 317.46973002 88.5135908 316.68986728 87.23876953 315.91040039 C83.4878683 313.61444875 79.74307176 311.30868826 76 309 C75.02627441 308.39978027 74.05254883 307.79956055 73.04931641 307.18115234 C68.80093286 304.5596098 64.55727516 301.93055375 60.31640625 299.296875 C53.24154072 294.90493509 46.15113417 290.53807105 39.04956055 286.18945312 C33.86431641 283.01131343 28.6933793 279.81730812 23.5639801 276.54997253 C21.1837306 275.03523568 18.79678956 273.53123074 16.40927124 272.02798462 C14.72039887 270.95833651 13.0413511 269.87322648 11.36254883 268.7878418 C10.3392749 268.14500244 9.31600098 267.50216309 8.26171875 266.83984375 C7.36412842 266.26613037 6.46653809 265.69241699 5.54174805 265.10131836 C2.45273977 263.76287668 1.15658572 263.93553673 -2 265 C-4.1037511 265.98434051 -4.1037511 265.98434051 -6.125 267.265625 C-6.90246582 267.73645508 -7.67993164 268.20728516 -8.48095703 268.69238281 C-9.31224121 269.20639648 -10.14352539 269.72041016 -11 270.25 C-12.32233643 271.0558252 -12.32233643 271.0558252 -13.67138672 271.87792969 C-16.45295915 273.57671264 -19.22729693 275.28678509 -22 277 C-22.84723633 277.52207031 -23.69447266 278.04414063 -24.56738281 278.58203125 C-28.85065835 281.22252105 -33.12826174 283.87200148 -37.40234375 286.52734375 C-43.48698885 290.30600047 -49.58647276 294.06036825 -55.6875 297.8125 C-56.76580078 298.47580322 -57.84410156 299.13910645 -58.95507812 299.82250977 C-62.30324127 301.88190763 -65.65159392 303.94099717 -69 306 C-73.14217156 308.54716051 -77.2841933 311.09456422 -81.42593384 313.64242554 C-83.07507149 314.6567896 -84.72442208 315.67080744 -86.3737793 316.68481445 C-87.38738525 317.30831787 -88.40099121 317.93182129 -89.4453125 318.57421875 C-90.39825195 319.1573584 -91.35119141 319.74049805 -92.33300781 320.34130859 C-94.04045051 321.40322416 -95.73422338 322.48764694 -97.40917969 323.60009766 C-99.22825944 324.80357167 -101.10901124 325.91300306 -103 327 C-103.99 326.67 -104.98 326.34 -106 326 C-105.79265653 325.15573047 -105.79265653 325.15573047 -105.58112431 324.29440498 C-102.20981982 310.56495485 -98.8461099 296.8336626 -95.49072361 283.10031319 C-93.86786795 276.45886866 -92.24249829 269.81805878 -90.61108398 263.17871094 C-89.03577051 256.76764489 -87.46762987 250.35485177 -85.90379143 243.94097519 C-85.30693312 241.49807878 -84.70770014 239.05576127 -84.10601997 236.614048 C-83.26167303 233.18578468 -82.42590431 229.7555331 -81.59204102 226.32470703 C-81.34316635 225.32272781 -81.09429169 224.3207486 -80.83787537 223.28840637 C-78.50461233 214.24649495 -78.50461233 214.24649495 -78 205 C-79.84219576 202.1896098 -82.0577204 200.41903817 -84.75 198.4375 C-85.43795654 197.88868164 -86.12591309 197.33986328 -86.8347168 196.77441406 C-88.22393822 195.66975922 -89.62390396 194.57847153 -91.03466797 193.50146484 C-93.67977645 191.48066768 -96.24435071 189.36733747 -98.8125 187.25 C-99.68519531 186.54359375 -100.55789062 185.8371875 -101.45703125 185.109375 C-104.89784015 182.25524781 -108.18334136 179.24358244 -111.48828125 176.234375 C-114.00151232 173.99865467 -116.57311479 171.86622318 -119.1875 169.75 C-124.32694428 165.58915231 -129.32326152 161.28265511 -134.30908203 156.94067383 C-138.88533621 152.95802387 -143.49656418 149.02059255 -148.13598633 145.11181641 C-152.89670867 141.09791724 -157.62097373 137.04223508 -162.33227539 132.97045898 C-164.63777235 130.98551601 -166.92686121 129.05232694 -169.40234375 127.28125 C-169.92957031 126.8584375 -170.45679688 126.435625 -171 126 C-171 125.34 -171 124.68 -171 124 C-141.34140187 121.47942643 -111.67358219 119.0864445 -82 116.75 C-81.13229477 116.68167717 -80.26458954 116.61335434 -79.37059021 116.54296112 C-68.58053356 115.69352124 -57.79033453 114.84590259 -47 114 C-46.19611067 112.05374161 -45.39222152 110.10748314 -44.58833313 108.16122437 C-43.85549719 106.38699217 -43.12265812 104.61276126 -42.38981628 102.83853149 C-40.29707779 97.7719413 -38.20439811 92.70532683 -36.11181641 87.63867188 C-32.10740091 77.94315615 -28.1027145 68.24775316 -24.09584045 58.55325317 C-22.42279999 54.50532918 -20.75004218 50.45728841 -19.07730103 46.40924072 C-18.29047392 44.50533363 -17.50351229 42.60148214 -16.71640015 40.69769287 C-11.11299226 27.14452654 -5.5442154 13.57748898 0 0 Z " fill="#FFBC37" transform="translate(183,110)"/>
<path d="M0 0 C0.66 0 1.32 0 2 0 C10.79276912 20.76796936 19.50279122 41.56632196 28.03125 62.44433594 C31.43493162 70.77230033 34.86265782 79.08913822 38.33984375 87.38671875 C38.69160172 88.22682495 39.04335968 89.06693115 39.40577698 89.93249512 C41.09267157 93.95978391 42.78364561 97.98528835 44.48071289 102.00830078 C45.08101412 103.43907634 45.68119981 104.86990039 46.28125 106.30078125 C46.55851425 106.95398849 46.8357785 107.60719574 47.1214447 108.28019714 C49 112.7731666 49 112.7731666 49 115 C49.66922391 114.99166421 50.33844782 114.98332842 51.02795124 114.97474003 C57.64359736 114.9283123 64.16712571 115.19913517 70.76049805 115.71850586 C72.27981934 115.83313927 72.27981934 115.83313927 73.82983398 115.9500885 C77.14078513 116.20095736 80.45124402 116.45777076 83.76171875 116.71484375 C86.08093447 116.89211885 88.4001742 117.06908004 90.71943665 117.2457428 C95.5635662 117.61560091 100.40747172 117.98822857 105.2512207 118.36303711 C111.44782412 118.84245006 117.64482352 119.31649037 123.84198284 119.78865719 C128.62484342 120.15339432 133.40754486 120.52018244 138.19019508 120.8876667 C140.4750305 121.06313148 142.75990035 121.23814856 145.04480553 121.41270256 C148.23925357 121.65720925 151.43349269 121.90428421 154.62768555 122.15209961 C155.56346939 122.22331024 156.49925323 122.29452087 157.46339417 122.3678894 C162.66645344 122.7746645 167.82665903 123.3100532 173 124 C171.41646516 128.35730828 168.02054147 130.82274996 164.5625 133.6875 C163.93504883 134.21641846 163.30759766 134.74533691 162.66113281 135.2902832 C158.01041917 139.19874862 153.29542308 143.02783653 148.578125 146.85546875 C145.128651 149.72480394 141.8288041 152.7453589 138.51171875 155.765625 C135.99848768 158.00134533 133.42688521 160.13377682 130.8125 162.25 C125.67305572 166.41084769 120.67673848 170.71734489 115.69091797 175.05932617 C111.11544564 179.0412957 106.50534778 182.97847221 101.86621094 186.88598633 C98.95920126 189.33647519 96.0642989 191.79985769 93.18359375 194.28125 C92.5481665 194.82837646 91.91273926 195.37550293 91.25805664 195.93920898 C90.03076061 196.99720086 88.80462743 198.05654364 87.57983398 199.11743164 C85.11982627 201.23738892 82.70607261 203.19595159 80 205 C80.64574214 211.0996416 81.81391593 216.91135827 83.26904297 222.86572266 C83.49845581 223.81975983 83.72786865 224.773797 83.9642334 225.75674438 C84.71952066 228.89350472 85.48089005 232.02875597 86.2421875 235.1640625 C86.7720891 237.3610104 87.30155181 239.5580642 87.83059692 241.75521851 C89.22309738 247.53421033 90.6205149 253.31200096 92.01928711 259.08947754 C94.25179555 268.31346356 96.47754272 277.53908092 98.70193863 286.76502609 C99.47502179 289.9679442 100.25062858 293.17024297 101.02658081 296.37246704 C103.48878202 306.55539348 105.89461032 316.73610379 108 327 C105.01885304 326.30338746 102.77211259 325.4333224 100.1484375 323.83984375 C99.39353027 323.38448242 98.63862305 322.92912109 97.86083984 322.45996094 C97.0405127 321.95754883 96.22018555 321.45513672 95.375 320.9375 C94.50182129 320.40801758 93.62864258 319.87853516 92.72900391 319.33300781 C89.81502774 317.56229709 86.90683256 315.78241174 84 314 C82.989375 313.3807666 81.97875 312.7615332 80.9375 312.12353516 C74.40059475 308.11457374 67.87237426 304.09163068 61.34667969 300.06445312 C55.90064965 296.70498201 50.45011426 293.35283947 45 290 C42.86327025 288.68491371 40.72655154 287.36980947 38.58984375 286.0546875 C34.57230399 283.58226216 30.5540928 281.110935 26.5350647 278.64093018 C24.12468367 277.15950321 21.71455361 275.67766821 19.30444336 274.19580078 C17.59838971 273.14706199 15.89197217 272.09891523 14.18554688 271.05078125 C13.15623047 270.41785156 12.12691406 269.78492188 11.06640625 269.1328125 C10.15834229 268.57480957 9.25027832 268.01680664 8.31469727 267.44189453 C6.52322613 266.32593329 4.75614624 265.17076416 3 264 C-2.80429097 264.11080144 -6.77070664 267.08561645 -11.4375 270.1875 C-13.13549489 271.28834837 -14.83477031 272.38722349 -16.53515625 273.484375 C-17.42605957 274.06123047 -18.31696289 274.63808594 -19.23486328 275.23242188 C-23.89949299 278.21422649 -28.63768376 281.07312271 -33.375 283.9375 C-41.56057298 288.90036899 -49.7191073 293.90359125 -57.85253906 298.95141602 C-62.79772281 302.01960589 -67.74844045 305.07852383 -72.70703125 308.125 C-73.56869652 308.65451767 -73.56869652 308.65451767 -74.44776917 309.19473267 C-77.25005267 310.91659551 -80.0529446 312.63745027 -82.85668945 314.35693359 C-84.40102661 315.30560303 -84.40102661 315.30560303 -85.9765625 316.2734375 C-87.47558105 317.19334473 -87.47558105 317.19334473 -89.00488281 318.13183594 C-92.95993798 320.59874841 -96.85316618 323.15766797 -100.73583984 325.73681641 C-103 327 -103 327 -106 327 C-103.29493526 314.54735883 -100.38054754 302.15509255 -97.34813881 289.77833366 C-96.59334324 286.69592149 -95.84156689 283.61278662 -95.09062195 280.5294342 C-92.959021 271.7780469 -90.82465 263.02734504 -88.68237305 254.27856445 C-87.36319884 248.8903075 -86.04951161 243.50073766 -84.73930931 238.11029243 C-84.24261022 236.07135688 -83.7438653 234.03291851 -83.24297523 231.99500847 C-82.54393518 229.15016785 -81.85190581 226.30370378 -81.16137695 223.45678711 C-80.95618942 222.62910324 -80.75100189 221.80141937 -80.53959656 220.94865417 C-78.5435531 213.061651 -78.5435531 213.061651 -78 205 C-79.89657549 202.59065887 -81.14165655 201.38562251 -83.5625 199.6875 C-84.77319373 198.75527909 -85.98279303 197.82163543 -87.19140625 196.88671875 C-88.13717529 196.17781494 -88.13717529 196.17781494 -89.10205078 195.45458984 C-92.17807818 193.09711991 -95.0789287 190.54490073 -98 188 C-99.17610705 186.98844712 -100.35318959 185.97802731 -101.53125 184.96875 C-102.3975 184.22625 -102.3975 184.22625 -103.28125 183.46875 C-106.01191668 181.1352712 -108.75547749 178.81715161 -111.5 176.5 C-116.61114862 172.184748 -121.69469142 167.83833342 -126.76953125 163.48046875 C-131.19659815 159.68163307 -135.6454722 155.90941794 -140.10327148 152.14672852 C-144.6943149 148.26788453 -149.25647859 144.35599706 -153.80908203 140.43212891 C-156.69595775 137.95011495 -159.60013672 135.49585425 -162.55078125 133.08984375 C-163.11079834 132.6316626 -163.67081543 132.17348145 -164.24780273 131.70141602 C-165.78351973 130.44957049 -167.32517277 129.20501727 -168.8671875 127.9609375 C-169.57101562 127.31382812 -170.27484375 126.66671875 -171 126 C-171 125.34 -171 124.68 -171 124 C-141.34140187 121.47942643 -111.67358219 119.0864445 -82 116.75 C-81.13229477 116.68167717 -80.26458954 116.61335434 -79.37059021 116.54296112 C-68.58053356 115.69352124 -57.79033453 114.84590259 -47 114 C-46.58346664 112.9683371 -46.16693329 111.93667419 -45.73777771 110.87374878 C-35.63542042 85.85543074 -25.37142616 60.90791809 -15 36 C-14.26284858 34.22917062 -13.52570672 32.45833726 -12.78857422 30.6875 C-8.52947701 20.45676443 -4.26659978 10.22760888 0 0 Z " fill="#FFBC37" transform="translate(959,110)"/>
<path d="M0 0 C0.66 0 1.32 0 2 0 C13.75555228 27.9462111 25.35551827 55.95196737 36.79071045 84.03076172 C38.18712058 87.45944793 39.58401254 90.88793773 40.98095703 94.31640625 C43.65425323 100.87748935 46.32721787 107.43870747 49 114 C49.5904586 114.0454618 50.18091721 114.0909236 50.78926849 114.13776302 C65.17937023 115.24584699 79.56930833 116.35603732 93.9590683 117.46855068 C100.91794581 118.00651064 107.87687631 118.54376663 114.8359375 119.0793457 C121.55338231 119.59633166 128.27067086 120.11530537 134.98786926 120.6354847 C137.54900545 120.83349338 140.11019298 121.03083899 142.6714325 121.22750664 C146.26221352 121.50334336 149.85280375 121.78154954 153.44335938 122.06030273 C154.49928284 122.14086411 155.5552063 122.22142548 156.64312744 122.3044281 C162.12023208 122.73226927 167.55509323 123.26696744 173 124 C171.48147523 127.83945182 169.22197262 129.67491055 166 132.1875 C162.22448968 135.19119376 158.55939005 138.24292994 155 141.5 C151.68010514 144.52282421 148.30235888 147.42512161 144.8125 150.25 C139.67305572 154.41084769 134.67673848 158.71734489 129.69091797 163.05932617 C125.10800359 167.04777241 120.48908427 170.98974232 115.84423828 174.90576172 C111.87899853 178.25071343 107.9354597 181.62007711 104 185 C99.30145003 189.03239153 94.59611728 193.05654058 89.875 197.0625 C89.34261719 197.51560547 88.81023437 197.96871094 88.26171875 198.43554688 C86.08345097 200.28063488 84.1210879 201.93789865 81.5703125 203.24609375 C81.05210937 203.82488281 80.53390625 204.40367187 80 205 C80.4235574 211.62937115 81.78058771 217.88488306 83.37670898 224.31811523 C83.61748169 225.30798431 83.85825439 226.29785339 84.10632324 227.31771851 C84.89771877 230.56597011 85.69693521 233.81224422 86.49609375 237.05859375 C87.05092913 239.33092563 87.60520594 241.60339395 88.15895081 243.87599182 C89.6148679 249.84583983 91.07714295 255.81411084 92.5411377 261.78198242 C94.8820753 271.32872319 97.21387117 280.87769853 99.54463387 290.42692757 C100.35672234 293.74978956 101.17184719 297.07189528 101.9874115 300.39390564 C102.48964928 302.44674855 102.99181471 304.49960916 103.49389648 306.55249023 C103.71890335 307.46552414 103.94391022 308.37855804 104.17573547 309.31925964 C105.60711213 315.18520014 106.86176585 321.07026321 108 327 C104.75876446 326.25200216 102.33545622 325.18492271 99.46484375 323.48046875 C98.5836084 322.95936523 97.70237305 322.43826172 96.79443359 321.90136719 C95.85164551 321.33579102 94.90885742 320.77021484 93.9375 320.1875 C92.95088379 319.60000977 91.96426758 319.01251953 90.94775391 318.40722656 C84.09874961 314.30949404 77.33241961 310.09442714 70.60473633 305.80126953 C63.50710463 301.28492711 56.32242294 296.9170223 49.125 292.5625 C40.5412376 287.36744114 31.96904793 282.15562005 23.4375 276.875 C22.58357666 276.34898193 21.72965332 275.82296387 20.84985352 275.28100586 C17.34835628 273.11650099 13.86996176 270.94047549 10.4765625 268.609375 C9.51492188 267.95453125 8.55328125 267.2996875 7.5625 266.625 C6.80066406 266.08101563 6.03882813 265.53703125 5.25390625 264.9765625 C2.13299854 263.62434945 0.28571944 264.23228728 -3 265 C-5.56864336 266.23713137 -5.56864336 266.23713137 -8.02734375 267.88671875 C-8.97246826 268.48822754 -9.91759277 269.08973633 -10.89135742 269.70947266 C-11.89658447 270.36222168 -12.90181152 271.0149707 -13.9375 271.6875 C-16.09814523 273.06507822 -18.25962437 274.44134924 -20.421875 275.81640625 C-22.06639648 276.86658936 -22.06639648 276.86658936 -23.74414062 277.93798828 C-28.68499884 281.06714908 -33.68312914 284.09883254 -38.6875 287.125 C-46.76545435 292.0236544 -54.81610094 296.96335052 -62.84277344 301.94555664 C-67.84907949 305.05205554 -72.86191307 308.14761213 -77.8828125 311.23046875 C-78.4690892 311.59058044 -79.05536591 311.95069214 -79.65940857 312.32171631 C-82.53748244 314.08938617 -85.4162636 315.85587625 -88.29614258 317.62060547 C-89.34181396 318.26271973 -90.38748535 318.90483398 -91.46484375 319.56640625 C-92.43921387 320.16469238 -93.41358398 320.76297852 -94.41748047 321.37939453 C-96.51012093 322.69258676 -98.54414971 324.04771098 -100.56640625 325.46484375 C-103 327 -103 327 -106 327 C-103.33184117 313.85191158 -100.33046868 300.80776678 -97.13237762 287.77899361 C-96.33923872 284.54684825 -95.55024662 281.31371407 -94.76226807 278.08030701 C-92.52522412 268.90396123 -90.28071068 259.72944718 -88.03417969 250.55541992 C-86.65115677 244.90644295 -85.27256017 239.25640035 -83.89661407 233.60569572 C-83.37367097 231.46222067 -82.84895915 229.31917633 -82.3224411 227.17657661 C-81.59071601 224.19886777 -80.86456928 221.21984995 -80.13964844 218.24047852 C-79.92151489 217.35898636 -79.70338135 216.4774942 -79.4786377 215.56929016 C-79.28247864 214.75824829 -79.08631958 213.94720642 -78.88421631 213.11158752 C-78.71242733 212.40989221 -78.54063835 211.70819689 -78.36364365 210.98523808 C-77.87988262 208.6806218 -77.87988262 208.6806218 -78 205 C-79.91828803 202.96755716 -79.91828803 202.96755716 -82.5625 201.0625 C-83.56796875 200.27617187 -84.5734375 199.48984375 -85.609375 198.6796875 C-86.43211914 198.03725098 -86.43211914 198.03725098 -87.27148438 197.38183594 C-90.36430607 194.90932594 -93.33206405 192.29340261 -96.3125 189.6875 C-97.59743327 188.56875426 -98.8825909 187.45026616 -100.16796875 186.33203125 C-101.12388916 185.49986084 -101.12388916 185.49986084 -102.09912109 184.65087891 C-110.04526132 177.74980002 -118.06453874 170.93365032 -126.10595703 164.14404297 C-130.0862417 160.7807446 -134.04657212 157.39480912 -138 154 C-142.50759686 150.13002977 -147.02625544 146.27385507 -151.5625 142.4375 C-152.08545654 141.99414307 -152.60841309 141.55078613 -153.1472168 141.09399414 C-155.98502385 138.69095955 -158.83592258 136.30540857 -161.703125 133.9375 C-162.30697021 133.43549072 -162.91081543 132.93348145 -163.53295898 132.41625977 C-164.69773099 131.44835964 -165.86638346 130.48510572 -167.03930664 129.52709961 C-168.39714477 128.3950413 -169.70415614 127.20252613 -171 126 C-171 125.34 -171 124.68 -171 124 C-144.85198138 121.76976677 -118.69714253 119.62678999 -92.53341675 117.58920288 C-89.64762424 117.36438748 -86.76199724 117.13760281 -83.87649536 116.90908813 C-79.78653577 116.58538656 -75.69604757 116.26890595 -71.60546875 115.953125 C-70.39263214 115.85644028 -69.17979553 115.75975555 -67.9302063 115.66014099 C-60.93685527 115.12777995 -54.01326767 114.87810639 -47 115 C-46.82730591 114.45848801 -46.65461182 113.91697601 -46.47668457 113.35905457 C-44.63136339 107.68545259 -42.51709083 102.17957276 -40.21875 96.67578125 C-39.85263107 95.79182175 -39.48651215 94.90786224 -39.10929871 93.99711609 C-37.90907077 91.1010434 -36.70455273 88.20677624 -35.5 85.3125 C-34.65699264 83.28072975 -33.81430588 81.24882646 -32.97192383 79.21679688 C-31.21242687 74.97298596 -29.45153329 70.7297581 -27.68994141 66.48681641 C-25.02797322 60.07166016 -22.37767333 53.65172893 -19.73046875 47.23046875 C-19.30488678 46.19843826 -18.87930481 45.16640778 -18.44082642 44.10310364 C-16.78988216 40.09947773 -15.13899141 36.09583027 -13.48925781 32.09170532 C-9.06738996 21.36154149 -4.61423889 10.64910406 0 0 Z " fill="#FFAA00" transform="translate(1347,110)"/>
<path d="M0 0 C0.66 0 1.32 0 2 0 C11.02537315 21.72194161 20.02899292 43.4523777 28.94140625 65.22094727 C35.60335447 81.49060546 42.3032528 97.74464255 49 114 C49.58438308 114.0454618 50.16876616 114.0909236 50.77085781 114.13776302 C65.0194062 115.24632487 79.26782564 116.35653259 93.5161047 117.46855068 C100.40658896 118.00628439 107.29711511 118.54347006 114.18774414 119.0793457 C120.84032643 119.59671032 127.4927859 120.11562844 134.14517403 120.6354847 C136.68037486 120.83334639 139.21561605 121.03069169 141.75089836 121.22750664 C145.30791814 121.5037291 148.86478865 121.78180443 152.42163086 122.06030273 C153.46460831 122.14086411 154.50758575 122.22142548 155.58216858 122.3044281 C161.40381887 122.76244985 167.19970967 123.3222327 173 124 C171.30452068 127.66442305 169.51967998 129.43983069 166.3125 131.9375 C161.65211092 135.64753523 157.11211532 139.4572746 152.625 143.375 C147.39918453 147.92728353 142.14288128 152.43853313 136.84423828 156.90576172 C132.87899977 160.25071239 128.93534871 163.61994922 125 167 C119.98523268 171.30637696 114.95066058 175.58814339 109.89892578 179.85107422 C107.07615966 182.23548539 104.26222431 184.62943567 101.4609375 187.0390625 C100.86804932 187.54848389 100.27516113 188.05790527 99.66430664 188.58276367 C98.48078132 189.60286593 97.30022132 190.62641972 96.12280273 191.65356445 C93.3691829 194.04153905 90.6068817 196.32659437 87.63671875 198.44140625 C86.62222656 199.18261719 85.60773438 199.92382812 84.5625 200.6875 C83.65628906 201.31011719 82.75007813 201.93273437 81.81640625 202.57421875 C79.46224443 205.71816389 80.04609386 207.62678883 80.55468559 211.3857708 C81.3538431 216.07724461 82.45902762 220.68248457 83.59204102 225.30297852 C83.85553345 226.39669266 84.11902588 227.4904068 84.39050293 228.61726379 C85.25639876 232.20576758 86.1300932 235.79232291 87.00390625 239.37890625 C87.60830695 241.87699393 88.21221731 244.37520029 88.81565857 246.8735199 C90.23880392 252.76035148 91.66686231 258.64597073 93.09734911 264.53102201 C94.72689271 271.23620584 96.35008979 277.94292084 97.97277939 284.64976609 C101.30817222 298.43488126 104.65145328 312.21807447 108 326 C105 327 105 327 102.68530273 325.89868164 C101.77723877 325.32496826 100.8691748 324.75125488 99.93359375 324.16015625 C98.90427734 323.51755859 97.87496094 322.87496094 96.81445312 322.21289062 C95.68875084 321.49617423 94.56310127 320.77937503 93.4375 320.0625 C92.26695662 319.32769078 91.09572101 318.59398322 89.92382812 317.86132812 C87.48670541 316.33646546 85.05264877 314.80687565 82.62060547 313.27392578 C77.10794829 309.80465381 71.5520472 306.40572457 66 303 C63.83702106 301.66962606 61.67426148 300.3388954 59.51171875 299.0078125 C57.90369385 298.0182959 57.90369385 298.0182959 56.26318359 297.00878906 C52.97303058 294.98339784 49.6836873 292.95669729 46.39453125 290.9296875 C35.64958123 284.30922221 24.8979342 277.69985346 14.125 271.125 C13.16182861 270.5357373 12.19865723 269.94647461 11.20629883 269.33935547 C10.31579834 268.79682129 9.42529785 268.25428711 8.5078125 267.6953125 C7.73066895 267.22109863 6.95352539 266.74688477 6.15283203 266.25830078 C5.44239746 265.84306152 4.73196289 265.42782227 4 265 C2.98619263 264.36167236 2.98619263 264.36167236 1.9519043 263.71044922 C0.02141125 262.77301621 0.02141125 262.77301621 -1.83325195 263.65234375 C-2.46191162 264.07644531 -3.09057129 264.50054687 -3.73828125 264.9375 C-4.4638623 265.4130835 -5.18944336 265.88866699 -5.93701172 266.37866211 C-6.72092285 266.91370361 -7.50483398 267.44874512 -8.3125 268 C-10.0285472 269.12843508 -11.74605929 270.25464485 -13.46484375 271.37890625 C-14.36831543 271.97461426 -15.27178711 272.57032227 -16.20263672 273.18408203 C-20.86188179 276.20864695 -25.61906415 279.06834262 -30.375 281.9375 C-38.56336201 286.90084435 -46.72389972 291.90589955 -54.85913086 296.95581055 C-59.76602797 300.00069284 -64.6795015 303.03436419 -69.6015625 306.0546875 C-70.74104995 306.75406613 -71.88053562 307.45344765 -73.02001953 308.15283203 C-75.27578121 309.5373143 -77.53205125 310.92095689 -79.78857422 312.30419922 C-86.79724465 316.61113854 -93.72719349 321.01098337 -100.55859375 325.59375 C-103 327 -103 327 -106 327 C-103.77979359 315.0468173 -100.95298314 303.26493567 -98.05291176 291.46113014 C-97.22196516 288.07810367 -96.39525768 284.69406539 -95.56962585 281.30973816 C-93.22436969 271.69977337 -90.87119768 262.09175106 -88.51635742 252.48413086 C-87.06965212 246.58041134 -85.62737811 240.67562314 -84.1877346 234.77017784 C-83.6396803 232.52622112 -83.0898462 230.28269832 -82.53820229 228.03962135 C-81.7704469 224.91778719 -81.00827037 221.79463994 -80.24731445 218.67114258 C-80.01825912 217.74596329 -79.7892038 216.820784 -79.5532074 215.86756897 C-79.24417984 214.59185028 -79.24417984 214.59185028 -78.9289093 213.2903595 C-78.74844716 212.55397153 -78.56798502 211.81758356 -78.38205433 211.05888081 C-77.87836704 208.69352794 -77.87836704 208.69352794 -78 205 C-79.91828803 202.96755716 -79.91828803 202.96755716 -82.5625 201.0625 C-83.56410156 200.28003906 -84.56570313 199.49757813 -85.59765625 198.69140625 C-86.14566895 198.26359863 -86.69368164 197.83579102 -87.25830078 197.39501953 C-90.42232454 194.86078464 -93.45231928 192.17195519 -96.5 189.5 C-100.88106061 185.67567618 -105.29065983 181.90840534 -109.8125 178.25 C-114.17582785 174.71808913 -118.3383848 171.01293064 -122.48828125 167.234375 C-125.00151232 164.99865467 -127.57311479 162.86622318 -130.1875 160.75 C-135.32168857 156.59340728 -140.31324694 152.29171328 -145.29370117 147.95385742 C-149.5022347 144.29088446 -153.73642226 140.66123601 -158 137.0625 C-158.53439697 136.61028076 -159.06879395 136.15806152 -159.61938477 135.69213867 C-161.85708383 133.80016641 -164.10082004 131.91701095 -166.36328125 130.0546875 C-167.94342339 128.74370785 -169.47917613 127.37935188 -171 126 C-171 125.34 -171 124.68 -171 124 C-144.85198138 121.76976677 -118.69714253 119.62678999 -92.53341675 117.58920288 C-89.64762424 117.36438748 -86.76199724 117.13760281 -83.87649536 116.90908813 C-79.78653577 116.58538656 -75.69604757 116.26890595 -71.60546875 115.953125 C-70.39263214 115.85644028 -69.17979553 115.75975555 -67.9302063 115.66014099 C-60.93685527 115.12777995 -54.01326767 114.87810639 -47 115 C-46.649375 113.86949219 -46.29875 112.73898438 -45.9375 111.57421875 C-43.35343901 103.83856176 -40.11537727 96.34514626 -37 88.8125 C-36.29791818 87.1084237 -35.59610136 85.4042382 -34.89453125 83.69995117 C-32.60088969 78.13142434 -30.30099939 72.56548981 -28 67 C-27.59346191 66.01660645 -27.18692383 65.03321289 -26.76806641 64.02001953 C-25.93290363 61.99988587 -25.09769827 59.97976982 -24.26245117 57.95967102 C-23.42007548 55.92226338 -22.57779048 53.88481825 -21.7355957 51.84733582 C-19.70848385 46.9433967 -17.68011446 42.03998916 -15.6484375 37.13793945 C-14.89037739 35.30690588 -14.13256075 33.47577148 -13.375 31.64453125 C-13.01083984 30.76436844 -12.64667969 29.88420563 -12.27148438 28.97737122 C-9.27266477 21.70743819 -6.35031816 14.40788107 -3.47412109 7.08857727 C-3.16297363 6.30226425 -2.85182617 5.51595123 -2.53125 4.70581055 C-2.25861328 4.01198776 -1.98597656 3.31816498 -1.70507812 2.60331726 C-1 1 -1 1 0 0 Z " fill="#FFAA00" transform="translate(1735,110)"/>
<path d="M0 0 C0.33 0 0.66 0 1 0 C1.45818547 33.29982853 1.81039257 66.59887043 2.02130659 99.90115313 C2.04631951 103.83628823 2.07220607 107.77141713 2.09863281 111.70654297 C2.10387902 112.48992693 2.10912523 113.27331089 2.11453041 114.08043376 C2.20146444 126.7509194 2.35909679 139.41958277 2.54305592 152.08898875 C2.73035964 165.0976356 2.84123022 178.105331 2.8817699 191.11527085 C2.90916271 199.13879386 2.99550619 207.15716709 3.15832934 215.17910334 C3.27697855 221.34007948 3.28904238 227.4971658 3.26215363 233.65912819 C3.26764298 236.17967431 3.30726918 238.70042038 3.3841095 241.21980095 C3.92222691 259.77813023 3.92222691 259.77813023 -0.98106098 265.18419743 C-5.7966116 269.01567847 -11.05439159 271.63142148 -16.70562887 274.00652266 C-19.52948361 275.22926978 -22.06483923 276.76427992 -24.6328125 278.453125 C-25.38135498 278.91823486 -26.12989746 279.38334473 -26.90112305 279.86254883 C-27.63500244 280.32040771 -28.36888184 280.7782666 -29.125 281.25 C-30.88390865 282.34277945 -32.64303376 283.43521055 -34.40234375 284.52734375 C-35.30710449 285.08921387 -36.21186523 285.65108398 -37.14404297 286.22998047 C-42.3176527 289.43639785 -47.50289293 292.62390669 -52.6875 295.8125 C-53.76797607 296.47725342 -54.84845215 297.14200684 -55.96166992 297.8269043 C-61.06713644 300.96759806 -66.17344358 304.10691663 -71.28129578 307.24372864 C-73.03576684 308.32130251 -74.7900139 309.39924007 -76.54418945 310.47729492 C-78.73237558 311.82194545 -80.92098345 313.16591004 -83.11010742 314.5090332 C-84.6160144 315.43462036 -84.6160144 315.43462036 -86.15234375 316.37890625 C-87.60423096 317.27053467 -87.60423096 317.27053467 -89.08544922 318.18017578 C-93.00903431 320.63003365 -96.87156783 323.17139379 -100.72485352 325.73022461 C-103 327 -103 327 -106 327 C-103.29493526 314.54735883 -100.38054754 302.15509255 -97.34813881 289.77833366 C-96.59334324 286.69592149 -95.84156689 283.61278662 -95.09062195 280.5294342 C-92.959021 271.7780469 -90.82465 263.02734504 -88.68237305 254.27856445 C-87.36319884 248.8903075 -86.04951161 243.50073766 -84.73930931 238.11029243 C-84.24261022 236.07135688 -83.7438653 234.03291851 -83.24297523 231.99500847 C-82.54393518 229.15016785 -81.85190581 226.30370378 -81.16137695 223.45678711 C-80.95618942 222.62910324 -80.75100189 221.80141937 -80.53959656 220.94865417 C-78.5435531 213.061651 -78.5435531 213.061651 -78 205 C-79.89657549 202.59065887 -81.14165655 201.38562251 -83.5625 199.6875 C-84.77319373 198.75527909 -85.98279303 197.82163543 -87.19140625 196.88671875 C-88.13717529 196.17781494 -88.13717529 196.17781494 -89.10205078 195.45458984 C-92.17807818 193.09711991 -95.0789287 190.54490073 -98 188 C-99.17610705 186.98844712 -100.35318959 185.97802731 -101.53125 184.96875 C-102.3975 184.22625 -102.3975 184.22625 -103.28125 183.46875 C-106.01191668 181.1352712 -108.75547749 178.81715161 -111.5 176.5 C-116.61114862 172.184748 -121.69469142 167.83833342 -126.76953125 163.48046875 C-131.19659815 159.68163307 -135.6454722 155.90941794 -140.10327148 152.14672852 C-144.6943149 148.26788453 -149.25647859 144.35599706 -153.80908203 140.43212891 C-156.69595775 137.95011495 -159.60013672 135.49585425 -162.55078125 133.08984375 C-163.11079834 132.6316626 -163.67081543 132.17348145 -164.24780273 131.70141602 C-165.78351973 130.44957049 -167.32517277 129.20501727 -168.8671875 127.9609375 C-169.57101562 127.31382812 -170.27484375 126.66671875 -171 126 C-171 125.34 -171 124.68 -171 124 C-141.34140187 121.47942643 -111.67358219 119.0864445 -82 116.75 C-81.13229477 116.68167717 -80.26458954 116.61335434 -79.37059021 116.54296112 C-68.58053356 115.69352124 -57.79033453 114.84590259 -47 114 C-46.58346664 112.9683371 -46.16693329 111.93667419 -45.73777771 110.87374878 C-35.63542042 85.85543074 -25.37142616 60.90791809 -15 36 C-14.26284858 34.22917062 -13.52570672 32.45833726 -12.78857422 30.6875 C-8.52947701 20.45676443 -4.26659978 10.22760888 0 0 Z " fill="#FFAA00" transform="translate(959,110)"/>
<path d="M0 0 C2.5322635 1.26613175 2.66182916 2.1332969 3.71728516 4.71728516 C4.04648956 5.51375961 4.37569397 6.31023407 4.71487427 7.13084412 C5.06935638 8.00805618 5.4238385 8.88526825 5.7890625 9.7890625 C6.35232742 11.15980675 6.35232742 11.15980675 6.92697144 12.5582428 C8.16604045 15.57792043 9.39550719 18.60141212 10.625 21.625 C11.48309785 23.72136642 12.34182783 25.81747419 13.20117188 27.91333008 C14.95699616 32.1984302 16.70908572 36.4850275 18.45800781 40.77294922 C20.77297026 46.4473717 23.09872171 52.11729175 25.4296875 57.78515625 C32.99009839 76.17508455 40.50257093 94.58431783 48 113 C48.5904586 113.0454618 49.18091721 113.0909236 49.78926849 113.13776302 C64.17937023 114.24584699 78.56930833 115.35603732 92.9590683 116.46855068 C99.91794581 117.00651064 106.87687631 117.54376663 113.8359375 118.0793457 C120.55338231 118.59633166 127.27067086 119.11530537 133.98786926 119.6354847 C136.54900545 119.83349338 139.11019298 120.03083899 141.6714325 120.22750664 C145.26221352 120.50334336 148.85280375 120.78154954 152.44335938 121.06030273 C153.49928284 121.14086411 154.5552063 121.22142548 155.64312744 121.3044281 C161.12023208 121.73226927 166.55509323 122.26696744 172 123 C170.48147523 126.83945182 168.22197262 128.67491055 165 131.1875 C161.22448968 134.19119376 157.55939005 137.24292994 154 140.5 C150.68010514 143.52282421 147.30235888 146.42512161 143.8125 149.25 C138.67305572 153.41084769 133.67673848 157.71734489 128.69091797 162.05932617 C124.10800359 166.04777241 119.48908427 169.98974232 114.84423828 173.90576172 C110.87899853 177.25071343 106.9354597 180.62007711 103 184 C98.30145003 188.03239153 93.59611728 192.05654058 88.875 196.0625 C88.34261719 196.51560547 87.81023437 196.96871094 87.26171875 197.43554688 C85.08345097 199.28063488 83.1210879 200.93789865 80.5703125 202.24609375 C79.79300781 203.11427734 79.79300781 203.11427734 79 204 C79.4235574 210.62937115 80.78058771 216.88488306 82.37670898 223.31811523 C82.61748169 224.30798431 82.85825439 225.29785339 83.10632324 226.31771851 C83.89771877 229.56597011 84.69693521 232.81224422 85.49609375 236.05859375 C86.05092913 238.33092563 86.60520594 240.60339395 87.15895081 242.87599182 C88.6148679 248.84583983 90.07714295 254.81411084 91.5411377 260.78198242 C93.8820753 270.32872319 96.21387117 279.87769853 98.54463387 289.42692757 C99.35672234 292.74978956 100.17184719 296.07189528 100.9874115 299.39390564 C101.48964928 301.44674855 101.99181471 303.49960916 102.49389648 305.55249023 C102.83140678 306.92204109 102.83140678 306.92204109 103.17573547 308.31925964 C104.60711213 314.18520014 105.86176585 320.07026321 107 326 C103.75876446 325.25200216 101.33545622 324.18492271 98.46484375 322.48046875 C97.14299072 321.69881348 97.14299072 321.69881348 95.79443359 320.90136719 C94.85164551 320.33579102 93.90885742 319.77021484 92.9375 319.1875 C91.95088379 318.60000977 90.96426758 318.01251953 89.94775391 317.40722656 C83.09874961 313.30949404 76.33241961 309.09442714 69.60473633 304.80126953 C62.50711033 300.28493073 55.32252057 295.91685342 48.125 291.5625 C21.77686351 275.61917393 21.77686351 275.61917393 15.71480083 271.58838654 C12.99434942 269.88431207 12.99434942 269.88431207 9.73167896 268.83182526 C5.70140896 267.12219005 2.5831655 265.61155248 0 262 C-2.56474838 254.11946527 -1.63739278 245.20869996 -1.47583008 237.04101562 C-1.47216203 234.45858954 -1.47422358 231.87614989 -1.48158264 229.29373169 C-1.48838603 223.73926625 -1.44774988 218.18679218 -1.37449074 212.63282776 C-1.26864549 204.60318193 -1.23496362 196.57449486 -1.21864685 188.54422706 C-1.19022372 175.51494194 -1.10379206 162.48671737 -0.98071289 149.45800781 C-0.86130813 136.80506685 -0.76932781 124.15241437 -0.71411133 111.49902344 C-0.71069592 110.71853238 -0.70728052 109.93804133 -0.70376161 109.13389903 C-0.68679561 105.21823925 -0.67036753 101.30257743 -0.65420687 97.38691425 C-0.51953034 64.92383752 -0.29064231 32.46206087 0 0 Z " fill="#FFBC37" transform="translate(1348,111)"/>
<path d="M0 0 C0.99 0.495 0.99 0.495 2 1 C2.51426271 34.08745281 2.8796332 67.17271929 3.04764695 100.26364421 C3.06764451 104.17731508 3.08886423 108.09097843 3.11083984 112.00463867 C3.11519392 112.78372046 3.119548 113.56280226 3.12403402 114.36549259 C3.19728824 126.95240959 3.3693482 139.53611016 3.57847288 152.12141936 C3.79112162 165.05240656 3.89632493 177.9811133 3.90351081 190.91386133 C3.91058218 198.1727858 3.96663766 205.42436431 4.14563751 212.68125725 C5.23020323 258.15679252 5.23020323 258.15679252 -1.71980286 267.03465652 C-7.77717622 273.29958799 -15.36595982 276.30788065 -23.56557465 278.82722664 C-28.78242421 280.60865484 -33.08418164 283.49767434 -37.625 286.5625 C-39.30732011 287.61559531 -40.99309244 288.66321346 -42.68359375 289.703125 C-43.96532471 290.49879883 -43.96532471 290.49879883 -45.27294922 291.31054688 C-50.40405397 294.48935125 -55.54616641 297.65027633 -60.6875 300.8125 C-61.76281982 301.47403076 -62.83813965 302.13556152 -63.94604492 302.81713867 C-69.12591774 306.00336232 -74.30646453 309.18848679 -79.4875946 312.37266541 C-81.89211266 313.85054865 -84.29637118 315.32885379 -86.70059204 316.80722046 C-88.40454158 317.85473852 -90.10888318 318.90161874 -91.81323242 319.94848633 C-93.35781128 320.89824341 -93.35781128 320.89824341 -94.93359375 321.8671875 C-95.84165771 322.42519043 -96.74972168 322.98319336 -97.68530273 323.55810547 C-99.47677387 324.67406671 -101.24385376 325.82923584 -103 327 C-103.99 326.67 -104.98 326.34 -106 326 C-105.8556955 325.40677602 -105.71139099 324.81355204 -105.56271362 324.20235157 C-102.05117403 309.76498678 -98.54595576 295.32609841 -95.04776001 280.88549519 C-93.3559041 273.9021546 -91.66191582 266.91934425 -89.96289062 259.93774414 C-88.48195372 253.85228441 -87.00503445 247.76586615 -85.53292274 241.67826527 C-84.75337947 238.45524465 -83.97124185 235.23288989 -83.18548584 232.01137733 C-82.30846235 228.41419925 -81.43855047 224.81537157 -80.5703125 221.21606445 C-80.30849182 220.14935516 -80.04667114 219.08264587 -79.7769165 217.98361206 C-79.54132019 217.00069687 -79.30572388 216.01778168 -79.06298828 215.00508118 C-78.85650665 214.15426625 -78.65002502 213.30345133 -78.43728638 212.42685413 C-77.97135654 209.84103439 -77.74748708 207.61918415 -78 205 C-79.99870885 202.90712706 -81.87239561 201.21431457 -84.125 199.4375 C-85.41573236 198.37805208 -86.70608638 197.31814307 -87.99609375 196.2578125 C-88.66108887 195.71930664 -89.32608398 195.18080078 -90.01123047 194.62597656 C-93.12256906 192.08221091 -96.15023102 189.44378482 -99.1875 186.8125 C-103.3273587 183.25109674 -107.50634791 179.75039536 -111.75 176.3125 C-116.13151795 172.75732096 -120.31710681 169.03230463 -124.48828125 165.234375 C-127.88457506 162.21309963 -131.4159298 159.37424067 -134.94921875 156.515625 C-138.52056516 153.57075037 -142.01214003 150.54282537 -145.5 147.5 C-151.5701738 142.20669812 -157.74679294 137.0762532 -164 132 C-166.39972148 130.04996363 -168.71244269 128.08421888 -171 126 C-171 125.34 -171 124.68 -171 124 C-141.34140187 121.47942643 -111.67358219 119.0864445 -82 116.75 C-81.13229477 116.68167717 -80.26458954 116.61335434 -79.37059021 116.54296112 C-68.58053356 115.69352124 -57.79033453 114.84590259 -47 114 C-46.57172913 112.95437897 -46.14345825 111.90875793 -45.70220947 110.83145142 C-34.52044718 83.53264542 -23.27454964 56.26060179 -12 29 C-11.4935495 27.77543091 -11.4935495 27.77543091 -10.97686768 26.52612305 C-7.31960811 17.68337972 -3.66093999 8.84122035 0 0 Z " fill="#FFAA00" transform="translate(571,110)"/>
<path d="M0 0 C3.41152332 1.70576166 4.10979974 5.70303312 5.46484375 9.10546875 C5.81000031 9.95590256 6.15515686 10.80633636 6.51077271 11.68254089 C7.65907103 14.51511727 8.79808741 17.35133902 9.9375 20.1875 C11.14980039 23.18302574 12.36461717 26.17752338 13.57951355 29.17199707 C14.42518838 31.25688783 15.27007335 33.34209912 16.11421204 35.4276123 C20.70628441 46.76714539 25.3817817 58.07183847 30.0625 69.375 C30.83008231 71.22937539 31.59758103 73.08378538 32.36499023 74.93823242 C32.69007065 75.72364914 33.01515106 76.50906586 33.3500824 77.31828308 C33.96763145 78.81202202 33.96763145 78.81202202 34.59765625 80.3359375 C34.9116849 81.09526077 35.22571356 81.85458405 35.54925823 82.63691711 C38.30585651 89.30748748 41.04427295 95.98536559 43.77514648 102.66650391 C44.18454216 103.66768753 44.59393784 104.66887115 45.01573944 105.70039368 C46.01065152 108.13353101 47.00540296 110.56673387 48 113 C48.58438308 113.0454618 49.16876616 113.0909236 49.77085781 113.13776302 C64.0194062 114.24632487 78.26782564 115.35653259 92.5161047 116.46855068 C99.40658896 117.00628439 106.29711511 117.54347006 113.18774414 118.0793457 C119.84032643 118.59671032 126.4927859 119.11562844 133.14517403 119.6354847 C135.68037486 119.83334639 138.21561605 120.03069169 140.75089836 120.22750664 C144.30791814 120.5037291 147.86478865 120.78180443 151.42163086 121.06030273 C152.46460831 121.14086411 153.50758575 121.22142548 154.58216858 121.3044281 C160.40381887 121.76244985 166.19970967 122.3222327 172 123 C170.30452068 126.66442305 168.51967998 128.43983069 165.3125 130.9375 C160.65211092 134.64753523 156.11211532 138.4572746 151.625 142.375 C146.39918453 146.92728353 141.14288128 151.43853313 135.84423828 155.90576172 C131.87899977 159.25071239 127.93534871 162.61994922 124 166 C118.98523268 170.30637696 113.95066058 174.58814339 108.89892578 178.85107422 C106.07615966 181.23548539 103.26222431 183.62943567 100.4609375 186.0390625 C99.86804932 186.54848389 99.27516113 187.05790527 98.66430664 187.58276367 C97.48078132 188.60286593 96.30022132 189.62641972 95.12280273 190.65356445 C92.3691829 193.04153905 89.6068817 195.32659437 86.63671875 197.44140625 C85.62222656 198.18261719 84.60773438 198.92382812 83.5625 199.6875 C82.65628906 200.31011719 81.75007813 200.93273437 80.81640625 201.57421875 C78.46224443 204.71816389 79.04609386 206.62678883 79.55468559 210.3857708 C80.3538431 215.07724461 81.45902762 219.68248457 82.59204102 224.30297852 C82.85553345 225.39669266 83.11902588 226.4904068 83.39050293 227.61726379 C84.25639876 231.20576758 85.1300932 234.79232291 86.00390625 238.37890625 C86.60830695 240.87699393 87.21221731 243.37520029 87.81565857 245.8735199 C89.23880392 251.76035148 90.66686231 257.64597073 92.09734911 263.53102201 C93.72689271 270.23620584 95.35008979 276.94292084 96.97277939 283.64976609 C100.30817222 297.43488126 103.65145328 311.21807447 107 325 C104 326 104 326 101.68530273 324.89868164 C100.77723877 324.32496826 99.8691748 323.75125488 98.93359375 323.16015625 C97.90427734 322.51755859 96.87496094 321.87496094 95.81445312 321.21289062 C94.68875084 320.49617423 93.56310127 319.77937503 92.4375 319.0625 C91.26695662 318.32769078 90.09572101 317.59398322 88.92382812 316.86132812 C86.48670541 315.33646546 84.05264877 313.80687565 81.62060547 312.27392578 C76.10794829 308.80465381 70.5520472 305.40572457 65 302 C62.83702106 300.66962606 60.67426148 299.3388954 58.51171875 298.0078125 C56.90369385 297.0182959 56.90369385 297.0182959 55.26318359 296.00878906 C51.97303058 293.98339784 48.6836873 291.95669729 45.39453125 289.9296875 C33.65682124 282.69807109 21.90631863 275.48893477 10.1184082 268.33935547 C9.22468506 267.79682129 8.33096191 267.25428711 7.41015625 266.6953125 C6.62777588 266.22109863 5.84539551 265.74688477 5.03930664 265.25830078 C3.33697333 264.20792057 1.66435794 263.10957196 0 262 C-0.37259549 260.07165134 -0.37259549 260.07165134 -0.36914349 257.66215324 C-0.37511663 256.74552151 -0.38108978 255.82888977 -0.38724393 254.88448131 C-0.3785054 253.87087854 -0.36976688 252.85727577 -0.36076355 251.81295776 C-0.36332682 250.7413582 -0.3658901 249.66975863 -0.36853105 248.56568635 C-0.37349862 244.95103034 -0.35692684 241.33678592 -0.34057617 237.72216797 C-0.33973054 235.1406251 -0.34020378 232.55908151 -0.34190369 229.97753906 C-0.34347903 224.40738486 -0.33404273 218.83733584 -0.31719017 213.2672081 C-0.29283988 205.21369249 -0.28499898 197.16022789 -0.2812262 189.10667945 C-0.27465546 176.04130563 -0.25467746 162.97598789 -0.22631836 149.91064453 C-0.19879386 137.21663698 -0.17755242 124.52264464 -0.16479492 111.82861328 C-0.16400675 111.04654589 -0.16321858 110.26447849 -0.16240653 109.45871209 C-0.1584915 105.53542678 -0.15470035 101.61214137 -0.15097082 97.68885589 C-0.11985554 65.12586308 -0.06700286 32.56293904 0 0 Z " fill="#FFBC37" transform="translate(1736,111)"/>
<path d="M0 0 C0.33 0 0.66 0 1 0 C1.52710229 33.13823093 1.93204374 66.27536993 2.17450258 99.4168402 C2.20326688 103.33437818 2.23303648 107.25190792 2.26342773 111.16943359 C2.26946087 111.94930232 2.27549401 112.72917104 2.28170998 113.53267215 C2.38164135 126.14069482 2.56289134 138.74629162 2.77451431 151.35287775 C2.99003962 164.30047579 3.11743997 177.24680879 3.16403538 190.19612682 C3.19551396 198.18046558 3.29465731 206.15794922 3.48207874 214.14017497 C3.61872388 220.27450307 3.63237033 226.40367249 3.60147667 232.53931427 C3.60778066 235.046226 3.65323892 237.55340791 3.74172592 240.05876541 C4.25895993 255.46518608 4.25895993 255.46518608 1 262 C-4.5674871 267.87916443 -11.77100317 271.26271706 -19.04616439 274.58160472 C-23.69649563 276.8146362 -27.98331905 279.58201064 -32.3125 282.375 C-33.26914551 282.96804932 -34.22579102 283.56109863 -35.21142578 284.17211914 C-35.9692334 284.64254639 -36.72704102 285.11297363 -37.5078125 285.59765625 C-43.55919735 289.34977901 -49.62274163 293.08204351 -55.6875 296.8125 C-57.30531372 297.80769653 -57.30531372 297.80769653 -58.95581055 298.82299805 C-62.30374104 300.88221446 -65.6518437 302.94115077 -69 305 C-73.14217156 307.54716051 -77.2841933 310.09456422 -81.42593384 312.64242554 C-83.07507149 313.6567896 -84.72442208 314.67080744 -86.3737793 315.68481445 C-87.38738525 316.30831787 -88.40099121 316.93182129 -89.4453125 317.57421875 C-90.39825195 318.1573584 -91.35119141 318.74049805 -92.33300781 319.34130859 C-94.04045051 320.40322416 -95.73422338 321.48764694 -97.40917969 322.60009766 C-99.22825944 323.80357167 -101.10901124 324.91300306 -103 326 C-103.99 325.67 -104.98 325.34 -106 325 C-105.79265653 324.15573047 -105.79265653 324.15573047 -105.58112431 323.29440498 C-102.20981982 309.56495485 -98.8461099 295.8336626 -95.49072361 282.10031319 C-93.86786795 275.45886866 -92.24249829 268.81805878 -90.61108398 262.17871094 C-89.03577051 255.76764489 -87.46762987 249.35485177 -85.90379143 242.94097519 C-85.30693312 240.49807878 -84.70770014 238.05576127 -84.10601997 235.614048 C-83.26167303 232.18578468 -82.42590431 228.7555331 -81.59204102 225.32470703 C-81.34316635 224.32272781 -81.09429169 223.3207486 -80.83787537 222.28840637 C-78.50461233 213.24649495 -78.50461233 213.24649495 -78 204 C-79.84219576 201.1896098 -82.0577204 199.41903817 -84.75 197.4375 C-85.43795654 196.88868164 -86.12591309 196.33986328 -86.8347168 195.77441406 C-88.22393822 194.66975922 -89.62390396 193.57847153 -91.03466797 192.50146484 C-93.67977645 190.48066768 -96.24435071 188.36733747 -98.8125 186.25 C-99.68519531 185.54359375 -100.55789062 184.8371875 -101.45703125 184.109375 C-104.89784015 181.25524781 -108.18334136 178.24358244 -111.48828125 175.234375 C-114.00151232 172.99865467 -116.57311479 170.86622318 -119.1875 168.75 C-124.32694428 164.58915231 -129.32326152 160.28265511 -134.30908203 155.94067383 C-138.88533621 151.95802387 -143.49656418 148.02059255 -148.13598633 144.11181641 C-152.89670867 140.09791724 -157.62097373 136.04223508 -162.33227539 131.97045898 C-164.63777235 129.98551601 -166.92686121 128.05232694 -169.40234375 126.28125 C-169.92957031 125.8584375 -170.45679688 125.435625 -171 125 C-171 124.34 -171 123.68 -171 123 C-141.34140187 120.47942643 -111.67358219 118.0864445 -82 115.75 C-81.13229477 115.68167717 -80.26458954 115.61335434 -79.37059021 115.54296112 C-68.58053356 114.69352124 -57.79033453 113.84590259 -47 113 C-46.196115 111.0537521 -45.39223057 109.10750395 -44.58834839 107.16125488 C-43.8554676 105.38691847 -43.12257742 103.61258594 -42.38967896 101.83825684 C-40.29757494 96.77328236 -38.20564714 91.70823522 -36.11401367 86.64306641 C-32.10209055 76.9281394 -28.08932345 67.21356855 -24.0700531 57.50167847 C-22.38691358 53.43448393 -20.70461604 49.36694135 -19.02236938 45.29937744 C-18.22898375 43.3816836 -17.43519492 41.46415651 -16.64096069 39.54681396 C-15.51607281 36.83113279 -14.39234955 34.11497498 -13.26953125 31.3984375 C-12.91475204 30.5401535 -12.55997284 29.68186951 -12.19444275 28.7975769 C-9.22610455 21.59433683 -6.33344021 14.36161196 -3.4835968 7.11068726 C-3.01544807 5.92788681 -3.01544807 5.92788681 -2.5378418 4.72119141 C-2.12709663 3.67628036 -2.12709663 3.67628036 -1.70805359 2.61026001 C-1 1 -1 1 0 0 Z " fill="#FFAA00" transform="translate(183,111)"/>
</svg>
