<?xml version="1.0" encoding="UTF-8"?>
<svg version="1.1" xmlns="http://www.w3.org/2000/svg" width="275" height="183">
<path d="M0 0 C90.75 0 181.5 0 275 0 C275 60.39 275 120.78 275 183 C184.25 183 93.5 183 0 183 C0 122.61 0 62.22 0 0 Z " fill="#DFDFDF" transform="translate(0,0)"/>
<path d="M0 0 C2.97 0.33 5.94 0.66 9 1 C9 1.66 9 2.32 9 3 C10.093125 2.9175 11.18625 2.835 12.3125 2.75 C17.9207857 2.78009813 23.14624233 4.17208667 28 7 C29.5625 10.4375 29.5625 10.4375 30 14 C30.495 15.175625 30.495 15.175625 31 16.375 C32.15899566 19.4173636 32.76811346 22.43533142 33.4296875 25.6171875 C33.98900387 27.95405726 34.73095403 30.12255994 35.5625 32.375 C37.10010983 36.76375568 37.5123277 40.99176301 37.7890625 45.6171875 C37.92039844 48.14676411 37.92039844 48.14676411 39 51 C39.0806622 52.48123547 39.10761193 53.96582204 39.09765625 55.44921875 C39.09282227 56.72055664 39.09282227 56.72055664 39.08789062 58.01757812 C39.07532227 59.33918945 39.07532227 59.33918945 39.0625 60.6875 C39.05798828 61.58017578 39.05347656 62.47285156 39.04882812 63.39257812 C39.03704983 65.59511987 39.02060164 67.79752599 39 70 C40.98 70.495 40.98 70.495 43 71 C42.01 71.495 42.01 71.495 41 72 C43.64 72.33 46.28 72.66 49 73 C49 72.34 49 71.68 49 71 C53.72267325 68.91112529 57.64557915 67.81661705 62.8125 67.5 C68.73782942 67.13060923 74.44863188 66.17680288 80 64 C80.495 63.01 80.495 63.01 81 62 C82.2065625 62.1546875 82.2065625 62.1546875 83.4375 62.3125 C87.76208986 61.93315001 90.23280863 60.37927876 93.8515625 58.09375 C96 57 96 57 100 57 C100.185625 55.7934375 100.185625 55.7934375 100.375 54.5625 C102.4893617 42.5106383 102.4893617 42.5106383 104 41 C105.9562593 40.90072714 107.91622909 40.87030271 109.875 40.875 C110.94492188 40.87242188 112.01484375 40.86984375 113.1171875 40.8671875 C116 41 116 41 119 42 C119 42.66 119 43.32 119 44 C119.66 44 120.32 44 121 44 C121.1173794 47.49971199 121.18763961 50.99890955 121.25 54.5 C121.28351563 55.48226562 121.31703125 56.46453125 121.3515625 57.4765625 C121.43691769 63.87820189 120.77896402 68.70845634 117 74 C115.11328125 75.8046875 115.11328125 75.8046875 113.3125 76.875 C109.97965513 78.61455724 109.97965513 78.61455724 109 81 C107.63875 81.2165625 107.63875 81.2165625 106.25 81.4375 C101.65862755 82.23216062 98.86114591 84.31499757 95.25 87.1875 C91.46019318 89.30104611 89.33231477 89.20488258 85.12109375 89.02734375 C82.26749718 88.99055705 80.3915485 89.43054629 78 91 C77.10613836 93.54775306 77.10613836 93.54775306 77 96 C75.35 95.67 73.7 95.34 72 95 C72.93508868 107.11924139 74.46101116 118.35657352 78 130 C78.34348982 131.33075303 78.68211111 132.66290033 79 134 C78.01 134.66 77.02 135.32 76 136 C75.67 140.95 75.34 145.9 75 151 C44.64 151 14.28 151 -17 151 C-17 145.06 -17 139.12 -17 133 C-18.010625 134.216875 -19.02125 135.43375 -20.0625 136.6875 C-22.45014022 139.43352841 -24.74119201 141.70349734 -27.75 143.75 C-30.63205922 145.74527177 -31.97629175 147.26799386 -34 150 C-34.99 150 -35.98 150 -37 150 C-38.33257403 140.58997722 -38.33257403 140.58997722 -37 136 C-39.0745356 135.8509288 -39.0745356 135.8509288 -41 137 C-41 136.34 -41 135.68 -41 135 C-42.32 134.67 -43.64 134.34 -45 134 C-44 132 -44 132 -42 131 C-42 129.02 -42 127.04 -42 125 C-41.01 124.505 -41.01 124.505 -40 124 C-38.63504324 121.51826044 -37.36003619 119.04533774 -36.125 116.5 C-35.76567383 115.77039063 -35.40634766 115.04078125 -35.03613281 114.2890625 C-32.88169047 109.89016478 -30.81968746 105.46122779 -28.8671875 100.96875 C-24.61068702 91.30534351 -24.61068702 91.30534351 -22 90 C-21.608125 89.236875 -21.21625 88.47375 -20.8125 87.6875 C-18.14117667 83.72657231 -14.58451426 81.60221692 -9.98828125 80.53125 C-8.33367029 80.28960296 -6.66661962 80.13605058 -5 80 C-4.71125 79.113125 -4.4225 78.22625 -4.125 77.3125 C-3 74 -3 74 -1.875 71.4375 C-0.65467163 68.03801384 -0.36755483 65.4004143 -1.875 62.0625 C-2.24625 61.381875 -2.6175 60.70125 -3 60 C-3.68960962 58.00779443 -4.36079057 56.00894394 -5 54 C-5.33 54 -5.66 54 -6 54 C-12.42880364 25.41325314 -12.42880364 25.41325314 -9.875 19.3125 C-8 17 -8 17 -4.9375 16.25 C-3.968125 15.8375 -2.99875 15.425 -2 15 C-0.84603162 12.06361098 -0.3727669 9.1235295 0 6 C-0.99 7.98 -1.98 9.96 -3 12 C-3.33 12 -3.66 12 -4 12 C-3.55778881 7.40100366 -3.09043777 4.49353835 0 1 C0 0.67 0 0.34 0 0 Z M-40 129 C-40.33 129.66 -40.66 130.32 -41 131 C-40.34 131 -39.68 131 -39 131 C-39.33 130.34 -39.66 129.68 -40 129 Z " fill="#0D0D0D" transform="translate(92,32)"/>
<path d="M0 0 C2.35694954 0.09031574 4.71153582 0.24688128 7.0625 0.4375 C8.35285156 0.53933594 9.64320312 0.64117187 10.97265625 0.74609375 C12.47119141 0.87177734 12.47119141 0.87177734 14 1 C14.12375 1.928125 14.12375 1.928125 14.25 2.875 C14.78568478 5.17660414 14.78568478 5.17660414 16.9609375 5.98046875 C19 7 19 7 19.9765625 8.98828125 C20.19054687 9.75527344 20.40453125 10.52226563 20.625 11.3125 C20.86089844 12.11171875 21.09679687 12.9109375 21.33984375 13.734375 C21.55769531 14.48203125 21.77554688 15.2296875 22 16 C22.64896236 17.67363977 23.30580437 19.34461042 24 21 C24.99 21 25.98 21 27 21 C27 22.32 27 23.64 27 25 C26.01 25 25.02 25 24 25 C23.9455548 27.20805524 23.90700717 29.41650554 23.875 31.625 C23.85179687 32.85476562 23.82859375 34.08453125 23.8046875 35.3515625 C23.99892164 38.97985619 24.81747997 41.59343267 26 45 C26.98720816 53.94226931 25.38033351 60.81182728 22 69 C18.5433106 78.21394573 17.46914909 86.16451232 18 96 C17.34 96 16.68 96 16 96 C16 96.99 16 97.98 16 99 C13 98 13 98 11.86328125 95.92578125 C10.8138079 92.36896886 10.50408887 88.86242238 10.1875 85.1875 C9.52014025 78.79722243 8.3351089 73.87538953 4 69 C3.18595703 68.4121875 3.18595703 68.4121875 2.35546875 67.8125 C0.11666947 64.81883179 0.65140508 61.39580913 0.75 57.8125 C0.75515625 57.08224609 0.7603125 56.35199219 0.765625 55.59960938 C0.83551604 50.66792286 1.3142854 45.88295151 2 41 C1.01 40.67 0.02 40.34 -1 40 C-5.7935796 33.53578671 -9.64396562 26.98553582 -11 19 C-11.33 18.34 -11.66 17.68 -12 17 C-12.41769139 12.46162238 -12.42000861 8.28627637 -11 3.9375 C-7.94400898 0.9770087 -5.19094576 1.2703836 -1 1 C-0.67 0.67 -0.34 0.34 0 0 Z " fill="#B2B2B2" transform="translate(99,59)"/>
<path d="M0 0 C0 0.66 0 1.32 0 2 C0.66 2 1.32 2 2 2 C2 2.66 2 3.32 2 4 C-5.625 3.125 -5.625 3.125 -9 2 C-5.68792318 6.10697526 -3.11524907 6.4209152 2 7 C2.495 7.99 2.495 7.99 3 9 C2.21625 9.4125 1.4325 9.825 0.625 10.25 C-2.05891656 12.0392777 -2.88098949 13.04988139 -4 16 C-4.66 16 -5.32 16 -6 16 C-6.12246094 16.56074219 -6.24492188 17.12148437 -6.37109375 17.69921875 C-8.78078382 26.51479296 -13.89802143 34.71460398 -18.23046875 42.71484375 C-19.5297748 45.1270212 -20.79729254 47.5390755 -22 50 C-22.66 50 -23.32 50 -24 50 C-23.67 52.64 -23.34 55.28 -23 58 C-24.485 58.495 -24.485 58.495 -26 59 C-24.68 59.66 -23.36 60.32 -22 61 C-21.34 60.34 -20.68 59.68 -20 59 C-19.34 59.66 -18.68 60.32 -18 61 C-18.0234375 63.49609375 -18.0234375 63.49609375 -18.375 66.4375 C-18.70663643 69.33353438 -19 72.08277187 -19 75 C-15.15387636 73.43306074 -12.87587769 70.94435097 -10 68 C-9.01 67.195625 -8.02 66.39125 -7 65.5625 C-3.88665209 62.903182 -1.57498868 60.16355753 1 57 C1.33 57 1.66 57 2 57 C2.02714735 59.22909871 2.04646254 61.45829367 2.0625 63.6875 C2.07410156 64.92886719 2.08570313 66.17023438 2.09765625 67.44921875 C2 71 2 71 1 76 C-8.9 76 -18.8 76 -29 76 C-30.32 73.03 -31.64 70.06 -33 67 C-33.56477051 66.20787109 -34.12954102 65.41574219 -34.71142578 64.59960938 C-36.80195867 60.38210384 -36.54277948 56.05208003 -36.6171875 51.40625 C-36.64225372 50.38196899 -36.66731995 49.35768799 -36.69314575 48.30236816 C-36.74203519 46.14069353 -36.78360861 43.97884268 -36.81835938 41.81689453 C-36.8748098 38.51113837 -36.96319757 35.20729451 -37.0546875 31.90234375 C-37.0982811 29.79951823 -37.14001047 27.69665306 -37.1796875 25.59375 C-37.20763397 24.60717407 -37.23558044 23.62059814 -37.26437378 22.60412598 C-37.33346712 16.55789877 -36.81790697 12.90394993 -32.46484375 8.41796875 C-28.22222222 5 -28.22222222 5 -26 5 C-26 4.34 -26 3.68 -26 3 C-25.34 3 -24.68 3 -24 3 C-24 2.34 -24 1.68 -24 1 C-15.74662333 -3.51970627 -8.66358805 -3.93799457 0 0 Z M-22 54 C-21.67 54.66 -21.34 55.32 -21 56 C-21.66 55.67 -22.32 55.34 -23 55 C-22.67 54.67 -22.34 54.34 -22 54 Z " fill="#AEAEAE" transform="translate(74,107)"/>
<path d="M0 0 C4.49636683 -0.36457028 4.49636683 -0.36457028 6.5703125 1.13671875 C8.4901134 3.63875434 8.90362366 5.92775376 9.5625 9 C10.35874505 12.67082463 10.8957144 14.8435716 13 18 C13.5466713 22.00892287 13.23940854 23.63340567 11 27.0625 C7.20050592 33.12552247 8.38576044 41.11779899 9.8125 47.8125 C10.08320313 48.71162109 10.08320313 48.71162109 10.359375 49.62890625 C11.49047754 53.81536505 12.17275936 58.10209055 12.9465332 62.36645508 C13.53844425 65.60575176 14.13944045 68.82002757 15 72 C14.34 72 13.68 72 13 72 C13 71.34 13 70.68 13 70 C8.05 70 3.1 70 -2 70 C-2.28875 71.36125 -2.5775 72.7225 -2.875 74.125 C-3.06578125 74.94484375 -3.2565625 75.7646875 -3.453125 76.609375 C-3.8904618 78.52116158 -4.26789184 80.44661592 -4.625 82.375 C-6.2040507 85.38955134 -6.74776884 85.56625689 -9.8125 86.6875 C-10.52792969 86.90277344 -11.24335938 87.11804688 -11.98046875 87.33984375 C-14.20514336 87.96694489 -14.20514336 87.96694489 -16.625 89.75 C-19.76634239 91.4033381 -21.63574654 90.86062298 -25 90 C-25.495 91.485 -25.495 91.485 -26 93 C-32.40843838 95.81346075 -39.45714182 96.38759744 -46.37109375 96.69140625 C-49.06137828 97.00720488 -50.62099271 97.78362872 -53 99 C-54.32 99 -55.64 99 -57 99 C-57 99.66 -57 100.32 -57 101 C-59.81736172 101.78260048 -61.45969238 102.19511109 -64.25 101.1875 C-66 100 -66 100 -67 98 C-67.13903154 96.588364 -67.22522907 95.17126563 -67.28125 93.75390625 C-67.31863281 92.91666016 -67.35601562 92.07941406 -67.39453125 91.21679688 C-67.44673828 89.90291992 -67.44673828 89.90291992 -67.5 88.5625 C-67.56896781 86.83447329 -67.64172785 85.10659269 -67.71875 83.37890625 C-67.74904297 82.6113501 -67.77933594 81.84379395 -67.81054688 81.05297852 C-67.93976993 78.80116729 -67.93976993 78.80116729 -69 76 C-69.19931837 74.21167134 -69.36236806 72.41913062 -69.5 70.625 C-69.77906166 67.00716496 -70.2261878 63.54663925 -71 60 C-70.01 60 -69.02 60 -68 60 C-64.48755313 70.30317747 -64.84370453 81.2329789 -65 92 C-63.68 92.33 -62.36 92.66 -61 93 C-61.495 93.99 -61.495 93.99 -62 95 C-61.4225 94.855625 -60.845 94.71125 -60.25 94.5625 C-59.5075 94.376875 -58.765 94.19125 -58 94 C-57.08456421 93.74839111 -57.08456421 93.74839111 -56.15063477 93.49169922 C-53.86326662 92.96873867 -51.6791138 92.74464162 -49.33984375 92.5703125 C-48.46392578 92.49683594 -47.58800781 92.42335938 -46.68554688 92.34765625 C-44.85024595 92.19895383 -43.01427081 92.05835501 -41.17773438 91.92578125 C-40.30310547 91.84972656 -39.42847656 91.77367188 -38.52734375 91.6953125 C-37.73062256 91.63359863 -36.93390137 91.57188477 -36.11303711 91.50830078 C-33.57100596 90.89680351 -32.69100622 89.94504393 -31 88 C-28.39568758 86.26379172 -27.40207548 85.94517153 -24.25 86.375 C-23.5075 86.58125 -22.765 86.7875 -22 87 C-21.67 86.34 -21.34 85.68 -21 85 C-19.67851173 84.62243192 -18.34164079 84.2981424 -17 84 C-13.40514869 82.95066719 -13.40514869 82.95066719 -10.875 80.375 C-10.441875 79.199375 -10.441875 79.199375 -10 78 C-9.2265625 76.2365625 -9.2265625 76.2365625 -8.4375 74.4375 C-6.86052919 70.18998063 -6.48556748 66.08472981 -6.18359375 61.5859375 C-6 59 -6 59 -5.4375 55.5625 C-4.56408884 48.4504377 -4.57841342 41.58182844 -6.0625 34.5625 C-7.18216542 28.61477376 -7.02145976 22.89024373 -6.75 16.875 C-6.69211304 15.4684314 -6.69211304 15.4684314 -6.63305664 14.03344727 C-6.5839917 13.15358154 -6.53492676 12.27371582 -6.484375 11.3671875 C-6.44022461 10.57425293 -6.39607422 9.78131836 -6.35058594 8.96435547 C-6 7 -6 7 -4 5 C-2.68 5 -1.36 5 0 5 C0 3.35 0 1.7 0 0 Z " fill="#9C9C9C" transform="translate(198,4)"/>
<path d="M0 0 C2.97 0.33 5.94 0.66 9 1 C9 1.66 9 2.32 9 3 C10.093125 2.9175 11.18625 2.835 12.3125 2.75 C17.9207857 2.78009813 23.14624233 4.17208667 28 7 C29.5625 10.4375 29.5625 10.4375 30 14 C30.495 15.175625 30.495 15.175625 31 16.375 C32.15899566 19.4173636 32.76811346 22.43533142 33.4296875 25.6171875 C33.98900387 27.95405726 34.73095403 30.12255994 35.5625 32.375 C37.10010983 36.76375568 37.5123277 40.99176301 37.7890625 45.6171875 C37.92039844 48.14676411 37.92039844 48.14676411 39 51 C39.30886376 57.72232891 39.23219764 64.37693767 38 71 C35.97441119 67.65060119 35.78261013 65.13037449 35.875 61.25 C35.89304688 60.26515625 35.91109375 59.2803125 35.9296875 58.265625 C35.95289063 57.51796875 35.97609375 56.7703125 36 56 C34.68 55.34 33.36 54.68 32 54 C32.66 52.02 33.32 50.04 34 48 C32.02 48.495 32.02 48.495 30 49 C28 43 28 43 27.3046875 40.66796875 C27.05976562 39.87003906 26.81484375 39.07210937 26.5625 38.25 C26.33691406 37.49203125 26.11132812 36.7340625 25.87890625 35.953125 C25.05041141 33.65000997 25.05041141 33.65000997 22 32 C21.505 30.515 21.505 30.515 21 29 C18.68802845 28.80609271 16.3753971 28.62003633 14.0625 28.4375 C12.77472656 28.33308594 11.48695312 28.22867188 10.16015625 28.12109375 C9.11730469 28.08113281 8.07445312 28.04117188 7 28 C6.67 28.33 6.34 28.66 6 29 C3.32941149 29.14115161 0.67567762 29.04247107 -2 29 C-4.52661325 33.73739985 -4.57964683 38.75760586 -4 44 C-3.37239425 45.35215873 -2.70674629 46.68747118 -2 48 C-1.54737004 49.97217338 -1.09513529 51.94444328 -0.6484375 53.91796875 C0.03740906 56.12011462 0.98278953 57.70717477 2.25 59.625 C4 63 4 63 3.375 66.125 C2.92125 67.07375 2.4675 68.0225 2 69 C1.62875 69.94875 1.2575 70.8975 0.875 71.875 C0.58625 72.57625 0.2975 73.2775 0 74 C-0.66 74 -1.32 74 -2 74 C-1.90460938 73.32453125 -1.80921875 72.6490625 -1.7109375 71.953125 C-1.60007812 71.06109375 -1.48921875 70.1690625 -1.375 69.25 C-1.25898437 68.36828125 -1.14296875 67.4865625 -1.0234375 66.578125 C-0.99741674 63.71584121 -1.57796677 62.43777126 -3 60 C-3.68960962 58.00779443 -4.36079057 56.00894394 -5 54 C-5.33 54 -5.66 54 -6 54 C-12.42880364 25.41325314 -12.42880364 25.41325314 -9.875 19.3125 C-8 17 -8 17 -4.9375 16.25 C-3.968125 15.8375 -2.99875 15.425 -2 15 C-0.84603162 12.06361098 -0.3727669 9.1235295 0 6 C-0.99 7.98 -1.98 9.96 -3 12 C-3.33 12 -3.66 12 -4 12 C-3.55778881 7.40100366 -3.09043777 4.49353835 0 1 C0 0.67 0 0.34 0 0 Z " fill="#0E0E0E" transform="translate(92,32)"/>
<path d="M0 0 C4.58090652 0.54534601 7.98557712 1.73097837 12 4 C12.763125 4.4125 13.52625 4.825 14.3125 5.25 C16.29971409 7.31081461 16.980719 9.01862801 17.21875 11.875 C16.72647033 16.65714532 14.20317979 20.80469268 12 25 C11.67193359 25.62632324 11.34386719 26.25264648 11.00585938 26.89794922 C9.28119926 30.18168288 7.53699756 33.45395703 5.76953125 36.71484375 C4.4702252 39.1270212 3.20270746 41.5390755 2 44 C1.34 44 0.68 44 0 44 C0 45.98 0 47.96 0 50 C-2.64 50 -5.28 50 -8 50 C-8 49.34 -8 48.68 -8 48 C-8.66 48 -9.32 48 -10 48 C-10 37.11 -10 26.22 -10 15 C-9.34 15 -8.68 15 -8 15 C-8.33 13.35 -8.66 11.7 -9 10 C-4.43672206 6.46713966 -0.50366792 6.67625483 5 7 C5 6.01 5 5.02 5 4 C3.35 3.67 1.7 3.34 0 3 C0 2.01 0 1.02 0 0 Z " fill="#A2A2A2" transform="translate(50,113)"/>
<path d="M0 0 C0.33 0 0.66 0 1 0 C1.02900455 3.6041498 1.04680018 7.20826962 1.0625 10.8125 C1.07087891 11.83666016 1.07925781 12.86082031 1.08789062 13.91601562 C1.09272461 15.39038086 1.09272461 15.39038086 1.09765625 16.89453125 C1.10551147 18.25348511 1.10551147 18.25348511 1.11352539 19.63989258 C1 22 1 22 0 25 C0.66 25 1.32 25 2 25 C1.67 27.64 1.34 30.28 1 33 C-0.485 33.495 -0.485 33.495 -2 34 C-2 35.98 -2 37.96 -2 40 C-8.75 41.125 -8.75 41.125 -11 40 C-11.67441131 38.3364521 -12.3400321 36.66933058 -13 35 C-13.99387334 33.66209359 -14.9926892 32.32781878 -16 31 C-16 30.34 -16 29.68 -16 29 C-16.99 29 -17.98 29 -19 29 C-19 28.01 -19 27.02 -19 26 C-15.25 24.875 -15.25 24.875 -13 26 C-13 24.02 -13 22.04 -13 20 C-13.99 20 -14.98 20 -16 20 C-15.67 16.7 -15.34 13.4 -15 10 C-13.68 10.66 -12.36 11.32 -11 12 C-11 12.66 -11 13.32 -11 14 C-10.34 14 -9.68 14 -9 14 C-8.938125 13.21625 -8.87625 12.4325 -8.8125 11.625 C-8.544375 10.75875 -8.27625 9.8925 -8 9 C-6.34795544 8.29788106 -4.68076231 7.63028587 -3 7 C-2.24756445 5.07361988 -2.24756445 5.07361988 -2 3 C-1.34 2.01 -0.68 1.02 0 0 Z " fill="#B3B3B3" transform="translate(120,95)"/>
<path d="M0 0 C5.84868863 5.69872226 5.84868863 5.69872226 6.3125 9.6875 C6 13 6 13 4 16.0625 C0.20050592 22.12552247 1.38576044 30.11779899 2.8125 36.8125 C2.99296875 37.41191406 3.1734375 38.01132812 3.359375 38.62890625 C4.49047754 42.81536505 5.17275936 47.10209055 5.9465332 51.36645508 C6.53844425 54.60575176 7.13944045 57.82002757 8 61 C7.34 61 6.68 61 6 61 C6 60.34 6 59.68 6 59 C2.37 58.34 -1.26 57.68 -5 57 C-4.979375 55.453125 -4.95875 53.90625 -4.9375 52.3125 C-4.93368835 49.58717112 -4.96513339 47.17433305 -5.5 44.5 C-6.78942628 38.05286861 -6.02921072 31.43256702 -5 25 C-5 23.68 -5 22.36 -5 21 C-6.32 21 -7.64 21 -9 21 C-9.625 18.6875 -9.625 18.6875 -10 16 C-9.34 15.01 -8.68 14.02 -8 13 C-7.34 13 -6.68 13 -6 13 C-5.67 13.99 -5.34 14.98 -5 16 C-4.34 16 -3.68 16 -3 16 C-3 15.34 -3 14.68 -3 14 C-2.01 13.34 -1.02 12.68 0 12 C-0.165 11.21625 -0.33 10.4325 -0.5 9.625 C-1.17379356 6.0875838 -0.73776598 3.50438839 0 0 Z " fill="#B3B3B3" transform="translate(205,15)"/>
<path d="M0 0 C0.99 0.495 0.99 0.495 2 1 C3.08694899 4.79853296 3.11628684 8.46347759 3.09765625 12.39453125 C3.09282227 14.19760742 3.09282227 14.19760742 3.08789062 16.03710938 C3.07532227 17.90592773 3.07532227 17.90592773 3.0625 19.8125 C3.05798828 21.07771484 3.05347656 22.34292969 3.04882812 23.64648438 C3.03706251 26.7643711 3.02062272 29.88216133 3 33 C2.34 33 1.68 33 1 33 C0.9175 33.969375 0.835 34.93875 0.75 35.9375 C-0.01886946 40.74536725 -1.01354063 45.06557143 -4 49 C-9.04836364 52.44559644 -13.83329369 55 -20 55 C-20.33 55.99 -20.66 56.98 -21 58 C-27.40843838 60.81346075 -34.45714182 61.38759744 -41.37109375 61.69140625 C-44.06137828 62.00720488 -45.62099271 62.78362872 -48 64 C-49.32 64 -50.64 64 -52 64 C-52 64.66 -52 65.32 -52 66 C-54.81736172 66.78260048 -56.45969238 67.19511109 -59.25 66.1875 C-61 65 -61 65 -62 63 C-62.13903154 61.588364 -62.22522907 60.17126563 -62.28125 58.75390625 C-62.31863281 57.91666016 -62.35601562 57.07941406 -62.39453125 56.21679688 C-62.44673828 54.90291992 -62.44673828 54.90291992 -62.5 53.5625 C-62.56896781 51.83447329 -62.64172785 50.10659269 -62.71875 48.37890625 C-62.74904297 47.6113501 -62.77933594 46.84379395 -62.81054688 46.05297852 C-62.93976993 43.80116729 -62.93976993 43.80116729 -64 41 C-64.19931837 39.21167134 -64.36236806 37.41913062 -64.5 35.625 C-64.77906166 32.00716496 -65.2261878 28.54663925 -66 25 C-65.01 25 -64.02 25 -63 25 C-59.48755313 35.30317747 -59.84370453 46.2329789 -60 57 C-58.68 57.33 -57.36 57.66 -56 58 C-56.33 58.66 -56.66 59.32 -57 60 C-56.4225 59.855625 -55.845 59.71125 -55.25 59.5625 C-54.5075 59.376875 -53.765 59.19125 -53 59 C-52.08456421 58.74839111 -52.08456421 58.74839111 -51.15063477 58.49169922 C-48.86326662 57.96873867 -46.6791138 57.74464162 -44.33984375 57.5703125 C-43.46392578 57.49683594 -42.58800781 57.42335937 -41.68554688 57.34765625 C-39.85024595 57.19895383 -38.01427081 57.05835501 -36.17773438 56.92578125 C-35.30310547 56.84972656 -34.42847656 56.77367187 -33.52734375 56.6953125 C-32.73062256 56.63359863 -31.93390137 56.57188477 -31.11303711 56.50830078 C-28.57100596 55.89680351 -27.69100622 54.94504393 -26 53 C-23.39568758 51.26379172 -22.40207548 50.94517153 -19.25 51.375 C-18.5075 51.58125 -17.765 51.7875 -17 52 C-16.505 51.01 -16.505 51.01 -16 50 C-14.67851173 49.62243192 -13.34164079 49.2981424 -12 49 C-8.40514869 47.95066719 -8.40514869 47.95066719 -5.875 45.375 C-5.58625 44.59125 -5.2975 43.8075 -5 43 C-4.484375 41.824375 -3.96875 40.64875 -3.4375 39.4375 C-1.88737699 35.2622943 -1.48710554 31.23385782 -1.2109375 26.80859375 C-1 24 -1 24 -0.48046875 20.71875 C0.06946616 16.46234325 0.11021946 12.34623944 0.0625 8.0625 C0.05798828 7.28326172 0.05347656 6.50402344 0.04882812 5.70117188 C0.03716908 3.80074732 0.01923877 1.90036294 0 0 Z " fill="#C7C7C7" transform="translate(193,39)"/>
<path d="M0 0 C0.33 0.66 0.66 1.32 1 2 C0.34 1.67 -0.32 1.34 -1 1 C-0.67 0.67 -0.34 0.34 0 0 Z M-1 2 C-2 4 -2 4 -4 5 C-2.68 5.66 -1.36 6.32 0 7 C0.66 6.34 1.32 5.68 2 5 C2.66 5.66 3.32 6.32 4 7 C3.9765625 9.49609375 3.9765625 9.49609375 3.625 12.4375 C3.29336357 15.33353438 3 18.08277187 3 21 C6.84612364 19.43306074 9.12412231 16.94435097 12 14 C12.99 13.195625 13.98 12.39125 15 11.5625 C18.11334791 8.903182 20.42501132 6.16355753 23 3 C23.33 3 23.66 3 24 3 C24.02714735 5.22909871 24.04646254 7.45829367 24.0625 9.6875 C24.07410156 10.92886719 24.08570313 12.17023438 24.09765625 13.44921875 C24 17 24 17 23 22 C13.1 22 3.2 22 -7 22 C-8.32 19.03 -9.64 16.06 -11 13 C-11.598125 12.05125 -12.19625 11.1025 -12.8125 10.125 C-13.204375 9.42375 -13.59625 8.7225 -14 8 C-11.90647594 1.71942783 -7.00140524 0.28531279 -1 2 Z " fill="#111111" transform="translate(52,161)"/>
<path d="M0 0 C10.03336724 0.3306568 10.03336724 0.3306568 12.796875 2.6484375 C14.4220046 5.49091511 14.98046875 7.86745557 14.98046875 11.125 C14.3771875 11.24617188 13.77390625 11.36734375 13.15234375 11.4921875 C11.95351562 11.74355469 11.95351562 11.74355469 10.73046875 12 C9.54710937 12.24363281 9.54710937 12.24363281 8.33984375 12.4921875 C5.95879119 13.13081418 4.05590675 13.79078986 1.98046875 15.125 C1.16462307 18.18408413 1.16462307 18.18408413 0.98046875 21.125 C-0.03015625 20.485625 -1.04078125 19.84625 -2.08203125 19.1875 C-5.77173049 17.05651044 -8.7981338 16.46960387 -13.01953125 16.125 C-13.01953125 16.785 -13.01953125 17.445 -13.01953125 18.125 C-11.69953125 18.455 -10.37953125 18.785 -9.01953125 19.125 C-10.99953125 20.115 -10.99953125 20.115 -13.01953125 21.125 C-15.67389241 16.54596261 -15.52939077 12.290462 -15.01953125 7.125 C-14.01953125 4.0625 -14.01953125 4.0625 -12.01953125 2.125 C-9.31637506 1.45735299 -6.82086874 1.30573145 -4.01953125 1.125 C-3.01953125 0.125 -3.01953125 0.125 0 0 Z " fill="#B9B9B9" transform="translate(102.01953125,58.875)"/>
<path d="M0 0 C1.85334752 2.78002128 2.3476336 3.9902814 2.9375 7.125 C3.58982252 10.33484099 4.4250343 13.30494694 5.5625 16.375 C7.10010983 20.76375568 7.5123277 24.99176301 7.7890625 29.6171875 C7.92039844 32.14676411 7.92039844 32.14676411 9 35 C9.30886376 41.72232891 9.23219764 48.37693767 8 55 C5.97441119 51.65060119 5.78261013 49.13037449 5.875 45.25 C5.89304688 44.26515625 5.91109375 43.2803125 5.9296875 42.265625 C5.95289063 41.51796875 5.97609375 40.7703125 6 40 C4.68 39.34 3.36 38.68 2 38 C2.66 36.02 3.32 34.04 4 32 C2.02 32.495 2.02 32.495 0 33 C-2 27 -2 27 -2.6953125 24.66796875 C-2.94023438 23.87003906 -3.18515625 23.07210937 -3.4375 22.25 C-3.66308594 21.49203125 -3.88867188 20.7340625 -4.12109375 19.953125 C-4.94958859 17.65000997 -4.94958859 17.65000997 -8 16 C-8.33 15.01 -8.66 14.02 -9 13 C-11.31197155 12.80609271 -13.6246029 12.62003633 -15.9375 12.4375 C-17.22527344 12.33308594 -18.51304688 12.22867188 -19.83984375 12.12109375 C-20.88269531 12.08113281 -21.92554687 12.04117188 -23 12 C-23.33 12.33 -23.66 12.66 -24 13 C-26.33297433 13.04092937 -28.66705225 13.04241723 -31 13 C-30.67 12.34 -30.34 11.68 -30 11 C-25.2865986 9.87225365 -20.5707312 9.78531671 -15.75 9.75 C-15.03070313 9.729375 -14.31140625 9.70875 -13.5703125 9.6875 C-11.484375 9.671875 -11.484375 9.671875 -8 10 C-7.01 11.485 -7.01 11.485 -6 13 C-4.68 13 -3.36 13 -2 13 C-1.34 8.71 -0.68 4.42 0 0 Z " fill="#343434" transform="translate(122,48)"/>
<path d="M0 0 C3.82948022 -0.30035139 6.37944133 -0.29678893 9.875 1.375 C12.61965597 4.76545738 12.67713272 7.29282368 12.859375 11.5625 C12.9408855 14.29126776 12.9408855 14.29126776 14 18 C16.97 18 19.94 18 23 18 C20.6875 20.5 20.6875 20.5 18 23 C17.01 23 16.02 23 15 23 C14.67 24.32 14.34 25.64 14 27 C14.99 27.33 15.98 27.66 17 28 C16.01 28.33 15.02 28.66 14 29 C14.02320312 29.56847656 14.04640625 30.13695313 14.0703125 30.72265625 C14.19191688 35.92558648 13.67723492 40.07312243 12 45 C11.67 45 11.34 45 11 45 C10.89847201 38.2314676 10.96973056 31.69675136 12 25 C11.01 24.67 10.02 24.34 9 24 C7.46889842 21.97999983 6.13313165 20.02431011 4.8125 17.875 C4.44447266 17.318125 4.07644531 16.76125 3.69726562 16.1875 C1.09515797 11.99709287 0.53143772 8.88034995 1 4 C1.33 3.67 1.66 3.34 2 3 C1.34 2.67 0.68 2.34 0 2 C0 1.34 0 0.68 0 0 Z " fill="#898989" transform="translate(89,75)"/>
<path d="M0 0 C0 1.65 0 3.3 0 5 C-1.65 4.01 -3.3 3.02 -5 2 C-5 5.3 -5 8.6 -5 12 C-4.01 11.67 -3.02 11.34 -2 11 C-2.33 13.31 -2.66 15.62 -3 18 C-4.98 18 -6.96 18 -9 18 C-9 18.99 -9 19.98 -9 21 C-8.01 21 -7.02 21 -6 21 C-4.68359375 22.390625 -4.68359375 22.390625 -3.4375 24.25 C-3.00953125 24.88550781 -2.5815625 25.52101562 -2.140625 26.17578125 C-0.95916301 28.06531121 0.10195484 29.95898827 1 32 C3.31 32 5.62 32 8 32 C8 30.02 8 28.04 8 26 C8.66 26 9.32 26 10 26 C9.23855422 32.47228916 9.23855422 32.47228916 7.96875 35.28125 C6.73658396 38.73926436 6.80657586 41.65180877 6.875 45.3125 C6.90207031 47.19388672 6.90207031 47.19388672 6.9296875 49.11328125 C6.95289062 50.06589844 6.97609375 51.01851562 7 52 C6.34 52 5.68 52 5 52 C5 52.99 5 53.98 5 55 C2 54 2 54 0.86328125 51.92578125 C-0.1861921 48.36896886 -0.49591113 44.86242238 -0.8125 41.1875 C-1.47985975 34.79722243 -2.6648911 29.87538953 -7 25 C-7.55300781 24.55527344 -8.10601562 24.11054687 -8.67578125 23.65234375 C-10 22 -10 22 -10.109375 19.3359375 C-9.99078125 18.35882813 -9.8721875 17.38171875 -9.75 16.375 C-9.64171875 15.39273438 -9.5334375 14.41046875 -9.421875 13.3984375 C-9 11 -9 11 -8 10 C-7.76807135 8.48530552 -7.58784762 6.96245438 -7.4375 5.4375 C-7.35371094 4.61121094 -7.26992187 3.78492187 -7.18359375 2.93359375 C-7.12300781 2.29550781 -7.06242187 1.65742187 -7 1 C-4 0 -4 0 0 0 Z " fill="#ACACAC" transform="translate(110,103)"/>
<path d="M0 0 C0.99 0 1.98 0 3 0 C4.4807848 2.9615696 4.35314037 5.83506295 4.5625 9.125 C4.64628906 10.40632812 4.73007812 11.68765625 4.81640625 13.0078125 C4.90728516 14.48894531 4.90728516 14.48894531 5 16 C5.66 16 6.32 16 7 16 C9.82294445 22.65408334 11.47590027 27.76808869 10 35 C7.36 35 4.72 35 2 35 C2 34.34 2 33.68 2 33 C1.34 33 0.68 33 0 33 C0 22.11 0 11.22 0 0 Z " fill="#B2B2B2" transform="translate(40,128)"/>
<path d="M0 0 C0.33 0 0.66 0 1 0 C1.07347656 0.94359375 1.07347656 0.94359375 1.1484375 1.90625 C1.55713536 6.58513581 2.15113898 10.97991386 3.39453125 15.5234375 C4.43165208 19.76559624 5.16659147 24.07023933 5.94677734 28.36572266 C6.53814641 31.60536269 7.13937982 34.81980352 8 38 C7.34 38 6.68 38 6 38 C6 37.34 6 36.68 6 36 C3.03 35.34 0.06 34.68 -3 34 C-3.06058594 32.60265625 -3.12117187 31.2053125 -3.18359375 29.765625 C-3.26801703 27.92707358 -3.35266414 26.08853243 -3.4375 24.25 C-3.49647461 22.86941406 -3.49647461 22.86941406 -3.55664062 21.4609375 C-3.59853516 20.57148437 -3.64042969 19.68203125 -3.68359375 18.765625 C-3.72025146 17.94868164 -3.75690918 17.13173828 -3.79467773 16.29003906 C-3.99134275 14.0965577 -4.40300594 12.11603587 -5 10 C-4.34 10 -3.68 10 -3 10 C-2.87625 9.46375 -2.7525 8.9275 -2.625 8.375 C-1.87793984 5.5361714 -0.94696636 2.77776798 0 0 Z " fill="#BABABA" transform="translate(205,38)"/>
<path d="M0 0 C0.66 0.33 1.32 0.66 2 1 C3.08694899 4.79853296 3.11628684 8.46347759 3.09765625 12.39453125 C3.09443359 13.59658203 3.09121094 14.79863281 3.08789062 16.03710938 C3.07532227 17.90592773 3.07532227 17.90592773 3.0625 19.8125 C3.05798828 21.07771484 3.05347656 22.34292969 3.04882812 23.64648438 C3.03706251 26.7643711 3.02062272 29.88216133 3 33 C2.34 33 1.68 33 1 33 C0.9175 33.969375 0.835 34.93875 0.75 35.9375 C-0.01891938 40.74567942 -1.01544863 45.06354136 -4 49 C-11.53029907 54.07782003 -19.8962746 57.36414902 -29 57 C-28.67 56.01 -28.34 55.02 -28 54 C-25.125 52.875 -25.125 52.875 -22 52 C-20.515 51.505 -20.515 51.505 -19 51 C-18.34 51.33 -17.68 51.66 -17 52 C-16.67 51.34 -16.34 50.68 -16 50 C-14.67851173 49.62243192 -13.34164079 49.2981424 -12 49 C-8.40514869 47.95066719 -8.40514869 47.95066719 -5.875 45.375 C-5.58625 44.59125 -5.2975 43.8075 -5 43 C-4.484375 41.824375 -3.96875 40.64875 -3.4375 39.4375 C-1.88737699 35.2622943 -1.48710554 31.23385782 -1.2109375 26.80859375 C-1 24 -1 24 -0.48046875 20.71875 C0.06946616 16.46234325 0.11021946 12.34623944 0.0625 8.0625 C0.05798828 7.28326172 0.05347656 6.50402344 0.04882812 5.70117188 C0.03716908 3.80074732 0.01923877 1.90036294 0 0 Z " fill="#BEBEBE" transform="translate(193,39)"/>
<path d="M0 0 C4.51219512 -0.36585366 4.51219512 -0.36585366 6.625 1.21875 C8.33941089 3.43969138 8.48626797 4.91049803 8.6875 7.6875 C8.78611328 8.89986328 8.78611328 8.89986328 8.88671875 10.13671875 C8.92410156 10.75160156 8.96148437 11.36648438 9 12 C8.34 12 7.68 12 7 12 C6.67 12.99 6.34 13.98 6 15 C3.69631264 16.06652192 1.35981813 17.06421005 -1 18 C-4.29922197 20.19948132 -4.42809901 20.50324145 -5.1875 24.125 C-5.455625 25.40375 -5.72375 26.6825 -6 28 C-6.33 28 -6.66 28 -7 28 C-6.8904307 24.54099522 -6.75973152 21.08310891 -6.625 17.625 C-6.5940625 16.64015625 -6.563125 15.6553125 -6.53125 14.640625 C-6.49257812 13.69960938 -6.45390625 12.75859375 -6.4140625 11.7890625 C-6.3826416 10.91975098 -6.3512207 10.05043945 -6.31884766 9.15478516 C-6 7 -6 7 -4 5 C-2.68 5 -1.36 5 0 5 C0 3.35 0 1.7 0 0 Z " fill="#A3A3A3" transform="translate(198,4)"/>
<path d="M0 0 C3.5625 1.5 3.5625 1.5 6 3 C5.01 3.495 5.01 3.495 4 4 C3.27840576 5.64363134 2.60648579 7.31050386 2 9 C2.66 9 3.32 9 4 9 C4 9.66 4 10.32 4 11 C3.01 11 2.02 11 1 11 C0.67 11.99 0.34 12.98 0 14 C-0.65129797 15.34090759 -1.31513275 16.67592331 -2 18 C-2.66 18 -3.32 18 -4 18 C-4.33 18.99 -4.66 19.98 -5 21 C-8.50623769 14.57189756 -11 8.41725027 -11 1 C-7.55389094 -0.72305453 -3.77537825 -0.379435 0 0 Z " fill="#D7D7D7" transform="translate(59,123)"/>
<path d="M0 0 C0.66 0.99 1.32 1.98 2 3 C5.55672179 4.2188121 5.55672179 4.2188121 9 5 C9 5.99 9 6.98 9 8 C7.96939453 8.05607422 7.96939453 8.05607422 6.91796875 8.11328125 C6.01691406 8.17902344 5.11585937 8.24476562 4.1875 8.3125 C3.29417969 8.37050781 2.40085937 8.42851563 1.48046875 8.48828125 C-1.36514559 9.07532925 -2.3596983 9.6185653 -4 12 C-4 13.32 -4 14.64 -4 16 C-4.66 16 -5.32 16 -6 16 C-6 26.89 -6 37.78 -6 49 C-5.34 49 -4.68 49 -4 49 C-4 49.66 -4 50.32 -4 51 C-3.34 51.33 -2.68 51.66 -2 52 C-3.65 52.66 -5.3 53.32 -7 54 C-8.1136146 51.77277079 -8.16926365 50.46876023 -8.25292969 47.99682617 C-8.28255798 47.17224411 -8.31218628 46.34766205 -8.3427124 45.49809265 C-8.36883606 44.60540176 -8.39495972 43.71271088 -8.421875 42.79296875 C-8.44977112 41.87542313 -8.47766724 40.9578775 -8.50640869 40.01252747 C-8.56285599 38.06824418 -8.61646736 36.12387682 -8.66748047 34.17944336 C-8.74939392 31.20947488 -8.85298496 28.24074848 -8.95703125 25.27148438 C-9.00916082 23.38284923 -9.05998457 21.49417751 -9.109375 19.60546875 C-9.14359558 18.71885056 -9.17781616 17.83223236 -9.21307373 16.91874695 C-9.31199276 12.07127546 -9.15019016 8.95088964 -6 5 C-4.11068453 3.13826578 -2.10128762 1.63433482 0 0 Z " fill="#A6A6A6" transform="translate(46,112)"/>
<path d="M0 0 C0.33 0 0.66 0 1 0 C1.02714735 2.22909871 1.04646254 4.45829367 1.0625 6.6875 C1.07410156 7.92886719 1.08570312 9.17023438 1.09765625 10.44921875 C1 14 1 14 0 19 C-5.94 19 -11.88 19 -18 19 C-12.42569407 11.19597169 -12.42569407 11.19597169 -9 8.9375 C-5.2908695 6.33620054 -2.79004557 3.55096708 0 0 Z " fill="#CACACA" transform="translate(75,164)"/>
<path d="M0 0 C0.33 0 0.66 0 1 0 C1.0269501 2.93756119 1.04681474 5.87487555 1.0625 8.8125 C1.07087891 9.64587891 1.07925781 10.47925781 1.08789062 11.33789062 C1.09111328 12.14033203 1.09433594 12.94277344 1.09765625 13.76953125 C1.10289307 14.50792236 1.10812988 15.24631348 1.11352539 16.00708008 C1 18 1 18 0 21 C-0.99 21.33 -1.98 21.66 -3 22 C-3.33 21.34 -3.66 20.68 -4 20 C-4.99 20.66 -5.98 21.32 -7 22 C-10 21 -10 21 -11.6875 18.625 C-13 16 -13 16 -13 13 C-11.68 13.33 -10.36 13.66 -9 14 C-8.938125 13.21625 -8.87625 12.4325 -8.8125 11.625 C-8.544375 10.75875 -8.27625 9.8925 -8 9 C-6.34795544 8.29788106 -4.68076231 7.63028587 -3 7 C-2.24756445 5.07361988 -2.24756445 5.07361988 -2 3 C-1.34 2.01 -0.68 1.02 0 0 Z " fill="#BBBBBB" transform="translate(120,95)"/>
<path d="M0 0 C2.76440212 2.76440212 3.2073383 5.9407582 4.125 9.625 C4.39763672 10.68460938 4.39763672 10.68460938 4.67578125 11.765625 C5.1233641 13.50884243 5.56249462 15.25422611 6 17 C6.33 17 6.66 17 7 17 C7.99 20.96 8.98 24.92 10 29 C10.33 29 10.66 29 11 29 C10.71913903 35.06659703 10.12726288 41.24492812 6 46 C3.24786945 47.26819018 1.05281741 47.59295768 -2 48 C-2 47.34 -2 46.68 -2 46 C-1.01 46 -0.02 46 1 46 C1.33 45.01 1.66 44.02 2 43 C4.0625 42.3125 4.0625 42.3125 6 42 C6.43037808 34.93861153 5.39068248 28.85014027 3.66796875 22.0078125 C2.89204889 18.51390435 2.7521575 15.55240915 3 12 C1.02 12.99 1.02 12.99 -1 14 C-1.02685938 11.85423363 -1.04633088 9.70837355 -1.0625 7.5625 C-1.07410156 6.36753906 -1.08570312 5.17257813 -1.09765625 3.94140625 C-1 1 -1 1 0 0 Z " fill="#A6A6A6" transform="translate(81,66)"/>
<path d="M0 0 C0 0.66 0 1.32 0 2 C1.65 2 3.3 2 5 2 C5 2.66 5 3.32 5 4 C5.66 4 6.32 4 7 4 C7.33 4.99 7.66 5.98 8 7 C8.66 7.66 9.32 8.32 10 9 C10.125 11.9375 10.125 11.9375 10 15 C10 15.99 10 16.98 10 18 C9.36485174 20.34210921 8.7013284 22.67684969 8 25 C7.34 25 6.68 25 6 25 C5.81824219 23.96939453 5.81824219 23.96939453 5.6328125 22.91796875 C5.46523437 22.01691406 5.29765625 21.11585937 5.125 20.1875 C4.96257812 19.29417969 4.80015625 18.40085937 4.6328125 17.48046875 C4.08811551 14.77272154 4.08811551 14.77272154 2 12 C1.875 8.8125 1.875 8.8125 2 6 C1.37351562 5.86722656 0.74703125 5.73445313 0.1015625 5.59765625 C-0.71570313 5.42105469 -1.53296875 5.24445312 -2.375 5.0625 C-3.18710938 4.88847656 -3.99921875 4.71445312 -4.8359375 4.53515625 C-7 4 -7 4 -9 3 C-9 2.01 -9 1.02 -9 0 C-5.62182575 -0.84454356 -3.32534757 -1.10844919 0 0 Z " fill="#CCCCCC" transform="translate(118,33)"/>
<path d="M0 0 C3.90646164 3.2553847 4.80370552 6.12937248 6 11 C6.64199649 12.67632417 7.29894157 14.34750513 8 16 C8.99 16 9.98 16 11 16 C11 17.32 11 18.64 11 20 C10.01 20 9.02 20 8 20 C7.67 21.32 7.34 22.64 7 24 C6.67 21.03 6.34 18.06 6 15 C5.071875 15.04125 4.14375 15.0825 3.1875 15.125 C0 15 0 15 -3 13 C-6.1628485 13.80404463 -6.1628485 13.80404463 -9 15 C-9 13.68 -9 12.36 -9 11 C-9.66 11 -10.32 11 -11 11 C-11 10.34 -11 9.68 -11 9 C-6.44573816 6.33409063 -3.26053037 5.68436818 2 6 C1.34 4.02 0.68 2.04 0 0 Z " fill="#999999" transform="translate(115,64)"/>
<path d="M0 0 C-0.165 0.5775 -0.33 1.155 -0.5 1.75 C-1.14462031 4.26664369 -1.14462031 4.26664369 -1 8 C-1.99 8.33 -2.98 8.66 -4 9 C-4 9.66 -4 10.32 -4 11 C-4.99 11.33 -5.98 11.66 -7 12 C-7 10.68 -7 9.36 -7 8 C-7.66 8 -8.32 8 -9 8 C-9 9.32 -9 10.64 -9 12 C-9.82973934 14.42995092 -10.92126483 16.66274046 -12 19 C-14.3393848 15.34471125 -14.29928196 12.26476789 -14 8 C-13.1384212 4.29521117 -12.16662781 3.14390583 -9.25 0.625 C-5.52474722 -1.23762639 -3.93439221 -1.12411206 0 0 Z " fill="#9A9A9A" transform="translate(206,20)"/>
<path d="M0 0 C0.33 0 0.66 0 1 0 C1.06058594 1.10859375 1.12117188 2.2171875 1.18359375 3.359375 C1.26802951 4.8229282 1.35267599 6.28646925 1.4375 7.75 C1.47681641 8.47960937 1.51613281 9.20921875 1.55664062 9.9609375 C1.77642869 14.03244886 1.77642869 14.03244886 2.52758789 18.02832031 C3.30761078 21.2838577 2.79226019 23.77436924 2 27 C-0.63906229 30.20967035 -3.14076345 32.42771844 -7 34 C-6.67 35.32 -6.34 36.64 -6 38 C-7.65 39.32 -9.3 40.64 -11 42 C-12.32 41.01 -13.64 40.02 -15 39 C-15.99 39.495 -15.99 39.495 -17 40 C-17.66 39.67 -18.32 39.34 -19 39 C-18.67 38.01 -18.34 37.02 -18 36 C-15 35 -15 35 -12 36 C-11.67 35.01 -11.34 34.02 -11 33 C-9.3304059 31.74994493 -7.58674972 30.72753813 -5.7890625 29.671875 C-0.92214859 25.12375458 -0.62162486 19.20171237 -0.38085938 12.91992188 C-0.35830078 11.97697266 -0.33574219 11.03402344 -0.3125 10.0625 C-0.27833984 9.09248047 -0.24417969 8.12246094 -0.20898438 7.12304688 C-0.12711426 4.74881363 -0.05776922 2.37492123 0 0 Z " fill="#C5C5C5" transform="translate(213,77)"/>
<path d="M0 0 C0.66 0.33 1.32 0.66 2 1 C1.67 1.66 1.34 2.32 1 3 C0.87851695 4.62165752 0.82456348 6.24884327 0.8125 7.875 C0.79832031 8.73867187 0.78414063 9.60234375 0.76953125 10.4921875 C1.01518433 13.16522606 1.73107802 14.66651426 3 17 C3.45262996 18.97217338 3.90486471 20.94444328 4.3515625 22.91796875 C5.03740906 25.12011462 5.98278953 26.70717477 7.25 28.625 C9 32 9 32 8.375 35.125 C7.92125 36.07375 7.4675 37.0225 7 38 C6.62875 38.94875 6.2575 39.8975 5.875 40.875 C5.58625 41.57625 5.2975 42.2775 5 43 C4.34 43 3.68 43 3 43 C3.14308594 41.98679687 3.14308594 41.98679687 3.2890625 40.953125 C3.39992188 40.06109375 3.51078125 39.1690625 3.625 38.25 C3.79902344 36.92742187 3.79902344 36.92742187 3.9765625 35.578125 C4.00258326 32.71584121 3.42203323 31.43777126 2 29 C1.31039038 27.00779443 0.63920943 25.00894394 0 23 C-0.33 23 -0.66 23 -1 23 C-1.66 18.71 -2.32 14.42 -3 10 C-2.67 10 -2.34 10 -2 10 C-1.34 6.7 -0.68 3.4 0 0 Z " fill="#353535" transform="translate(87,63)"/>
<path d="M0 0 C0.33 0 0.66 0 1 0 C1.13277344 0.67546875 1.26554687 1.3509375 1.40234375 2.046875 C1.57894531 2.93890625 1.75554687 3.8309375 1.9375 4.75 C2.11152344 5.63171875 2.28554687 6.5134375 2.46484375 7.421875 C2.77974643 8.93892439 3.1279052 10.45084314 3.55078125 11.94140625 C5.3599699 20.2322099 4.14685265 28.26398725 1 36 C-0.125 32.25 -0.125 32.25 1 30 C0.34 30 -0.32 30 -1 30 C-1 22.08 -1 14.16 -1 6 C-2.32 7.65 -3.64 9.3 -5 11 C-5.66 11 -6.32 11 -7 11 C-5.67826848 7.03480543 -4.03505387 4.83924395 -1 2 C-0.67 1.34 -0.34 0.68 0 0 Z " fill="#808080" transform="translate(121,90)"/>
<path d="M0 0 C0.33 0 0.66 0 1 0 C2.21892753 10.63898882 2.32849047 21.30280622 2.55224609 31.99707031 C2.6039198 34.40440129 2.66110247 36.81155583 2.71875 39.21875 C2.73232544 39.9562146 2.74590088 40.6936792 2.7598877 41.45349121 C2.83550268 44.55188347 3.01302587 47.03907762 4 50 C3.01 50 2.02 50 1 50 C1 49.34 1 48.68 1 48 C0.34 48 -0.32 48 -1 48 C-2 45 -2 45 -2 43 C-2.31478446 41.66216607 -2.64587656 40.32796291 -3 39 C-1.02 38.505 -1.02 38.505 1 38 C0.855625 36.783125 0.71125 35.56625 0.5625 34.3125 C0.48128906 33.62800781 0.40007813 32.94351563 0.31640625 32.23828125 C0.03415153 29.99078623 0.03415153 29.99078623 -0.52734375 27.78515625 C-1.18850857 23.88920155 -1.14442896 20.06907975 -1.125 16.125 C-1.12886719 15.34769531 -1.13273437 14.57039062 -1.13671875 13.76953125 C-1.12883117 9.07641994 -0.77762682 4.62873105 0 0 Z " fill="#CCCCCC" transform="translate(36,122)"/>
<path d="M0 0 C0.66 0 1.32 0 2 0 C4.82294445 6.65408334 6.47590027 11.76808869 5 19 C2.36 19 -0.28 19 -3 19 C-4.231394 15.30581799 -3.64432764 12.7943739 -3 9 C-2.01 8.67 -1.02 8.34 0 8 C0 5.36 0 2.72 0 0 Z " fill="#B7B7B7" transform="translate(45,144)"/>
<path d="M0 0 C3.81555496 -0.29925921 6.41742685 -0.26029864 9.9375 1.3125 C13.16634236 5.51977944 12.39715546 9.88110743 12 15 C10 14 10 14 8 11 C4.41642759 10.74984127 4.41642759 10.74984127 1 11 C0.95758277 8.66705225 0.95907063 6.33297433 1 4 C1.33 3.67 1.66 3.34 2 3 C1.34 2.67 0.68 2.34 0 2 C0 1.34 0 0.68 0 0 Z " fill="#959595" transform="translate(89,75)"/>
<path d="M0 0 C0.94875 0.04125 1.8975 0.0825 2.875 0.125 C3.205 0.785 3.535 1.445 3.875 2.125 C2.43724304 5.34283702 0.83082488 8.19126269 -1.125 11.125 C-3.3169672 10.65529274 -5.08766615 10.1454734 -7.0625 9.0625 C-9.54440633 7.93436076 -11.42902539 7.97522363 -14.125 8.125 C-13.795 6.475 -13.465 4.825 -13.125 3.125 C-11.84625 3.00125 -10.5675 2.8775 -9.25 2.75 C-5.29616658 2.36737096 -3.85839474 0.15433579 0 0 Z " fill="#C3C3C3" transform="translate(116.125,77.875)"/>
<path d="M0 0 C0 1.65 0 3.3 0 5 C-1.65 4.01 -3.3 3.02 -5 2 C-5 5.3 -5 8.6 -5 12 C-4.01 11.67 -3.02 11.34 -2 11 C-2.33 13.31 -2.66 15.62 -3 18 C-4.98 18 -6.96 18 -9 18 C-9 18.99 -9 19.98 -9 21 C-8.01 21 -7.02 21 -6 21 C-1.40055546 26.14699746 -0.17052894 30.16333972 0 37 C-0.27972656 36.42378906 -0.55945313 35.84757812 -0.84765625 35.25390625 C-1.95880369 33.08057719 -3.15384584 31.01294084 -4.4375 28.9375 C-5.05431641 27.93009766 -5.05431641 27.93009766 -5.68359375 26.90234375 C-6.91039052 24.94783865 -6.91039052 24.94783865 -8.67578125 23.60546875 C-10 22 -10 22 -10.109375 19.3359375 C-9.99078125 18.35882813 -9.8721875 17.38171875 -9.75 16.375 C-9.64171875 15.39273438 -9.5334375 14.41046875 -9.421875 13.3984375 C-9 11 -9 11 -8 10 C-7.76807135 8.48530552 -7.58784762 6.96245438 -7.4375 5.4375 C-7.35371094 4.61121094 -7.26992187 3.78492187 -7.18359375 2.93359375 C-7.12300781 2.29550781 -7.06242187 1.65742187 -7 1 C-4 0 -4 0 0 0 Z " fill="#929292" transform="translate(110,103)"/>
<path d="M0 0 C0.99 0.33 1.98 0.66 3 1 C1.02 3.97 1.02 3.97 -1 7 C-3.475 6.505 -3.475 6.505 -6 6 C-6 6.66 -6 7.32 -6 8 C-6.886875 8.28875 -7.77375 8.5775 -8.6875 8.875 C-11.93037045 9.92182758 -11.93037045 9.92182758 -14.6875 11.1875 C-17 12 -17 12 -20 11 C-20.6875 8.9375 -20.6875 8.9375 -21 7 C-17.32774833 4.74015282 -14.74244714 3.83996893 -10.5 4.0625 C-5.89497916 4.26406657 -3.71186533 2.73971013 0 0 Z " fill="#C7C7C7" transform="translate(190,116)"/>
<path d="M0 0 C0.66 0.66 1.32 1.32 2 2 C1.9765625 4.3828125 1.9765625 4.3828125 1.625 7.125 C1.45871094 8.49011719 1.45871094 8.49011719 1.2890625 9.8828125 C1.14597656 10.93082031 1.14597656 10.93082031 1 12 C0.01 12 -0.98 12 -2 12 C-2.66 13.32 -3.32 14.64 -4 16 C-4.99 16 -5.98 16 -7 16 C-7.33 16.99 -7.66 17.98 -8 19 C-9.60517097 18.91266424 -11.20921662 18.80447776 -12.8125 18.6875 C-13.70582031 18.62949219 -14.59914063 18.57148437 -15.51953125 18.51171875 C-18.32671925 17.93259808 -19.30697846 17.2779858 -21 15 C-21 14.34 -21 13.68 -21 13 C-17.37 13.66 -13.74 14.32 -10 15 C-9.67 14.01 -9.34 13.02 -9 12 C-6.0974856 9.96039529 -3.49158202 8.64658926 0 8 C0 5.36 0 2.72 0 0 Z " fill="#C8C8C8" transform="translate(86,96)"/>
<path d="M0 0 C4 2 4 2 5 4 C5.66 3.67 6.32 3.34 7 3 C9.86172432 12.12174629 9.74186215 21.63749095 8 31 C5.97441119 27.65060119 5.78261013 25.13037449 5.875 21.25 C5.89304687 20.26515625 5.91109375 19.2803125 5.9296875 18.265625 C5.95289062 17.51796875 5.97609375 16.7703125 6 16 C4.68 15.34 3.36 14.68 2 14 C2.66 12.02 3.32 10.04 4 8 C2.68 8.33 1.36 8.66 0 9 C0 6.03 0 3.06 0 0 Z " fill="#212121" transform="translate(122,72)"/>
<path d="M0 0 C2.35694954 0.09031574 4.71153582 0.24688128 7.0625 0.4375 C8.35285156 0.53933594 9.64320312 0.64117187 10.97265625 0.74609375 C12.47119141 0.87177734 12.47119141 0.87177734 14 1 C14 1.33 14 1.66 14 2 C13.154375 1.96519531 12.30875 1.93039063 11.4375 1.89453125 C4.49430443 1.72884136 -0.69610062 2.03345912 -7 5 C-6.84402344 5.62648438 -6.68804687 6.25296875 -6.52734375 6.8984375 C-6.33269531 7.71570313 -6.13804688 8.53296875 -5.9375 9.375 C-5.74027344 10.18710938 -5.54304688 10.99921875 -5.33984375 11.8359375 C-5 14 -5 14 -6 16 C-7.32 16 -8.64 16 -10 16 C-10 16.66 -10 17.32 -10 18 C-8.68 18.33 -7.36 18.66 -6 19 C-7.98 19.99 -7.98 19.99 -10 21 C-12.65436116 16.42096261 -12.50985952 12.165462 -12 7 C-11 3.9375 -11 3.9375 -9 2 C-6.29684381 1.33235299 -3.80133749 1.18073145 -1 1 C-0.67 0.67 -0.34 0.34 0 0 Z " fill="#909090" transform="translate(99,59)"/>
<path d="M0 0 C0.66 0 1.32 0 2 0 C2.64939736 2.37407592 3.29460053 4.7491639 3.9375 7.125 C4.11990234 7.79015625 4.30230469 8.4553125 4.49023438 9.140625 C5.55082506 13.07445227 6.40362132 16.96973565 7 21 C8.65 21.33 10.3 21.66 12 22 C10.80100302 25.0831351 9.52299523 28.06279492 8 31 C7.34 30.67 6.68 30.34 6 30 C5.2863409 27.68060793 4.6252708 25.34476551 4 23 C3.67257813 22.28972656 3.34515625 21.57945312 3.0078125 20.84765625 C1.5945619 16.85440166 1.27942514 12.88755458 0.875 8.6875 C0.78863281 7.85154297 0.70226563 7.01558594 0.61328125 6.15429688 C0.40234458 4.1035237 0.20028354 2.05184097 0 0 Z " fill="#757575" transform="translate(44,126)"/>
<path d="M0 0 C2.26580018 2.26580018 2.38405382 3.12509783 2.9375 6.1875 C3.80058426 10.45458856 5.15719061 14.06308902 7 18 C9.34942482 15.86415925 10.69579377 13.88788523 12 11 C12.33 10.34 12.66 9.68 13 9 C13.99 9 14.98 9 16 9 C15.31113213 12.38891322 14.01283514 15.18011613 12.4375 18.25 C11.98246094 19.14203125 11.52742188 20.0340625 11.05859375 20.953125 C10.70925781 21.62859375 10.35992187 22.3040625 10 23 C8.02 22.67 6.04 22.34 4 22 C3.32210976 19.64856824 2.65759253 17.29461376 2 14.9375 C1.71382812 13.95233398 1.71382812 13.95233398 1.421875 12.94726562 C0.20403571 8.5325982 -0.19227394 4.62058323 0 0 Z " fill="#B7B7B7" transform="translate(47,125)"/>
<path d="M0 0 C0.99 0.33 1.98 0.66 3 1 C3 2.32 3 3.64 3 5 C3.33 4.34 3.66 3.68 4 3 C7.0625 2.375 7.0625 2.375 10 2 C10 2.99 10 3.98 10 5 C6.99382731 8.00617269 4.17618402 7.59585316 0 8 C0 8.99 0 9.98 0 11 C1.65 11.33 3.3 11.66 5 12 C5 12.99 5 13.98 5 15 C4.01 15 3.02 15 2 15 C2.66 16.65 3.32 18.3 4 20 C2.02 20 0.04 20 -2 20 C-1.34 19.67 -0.68 19.34 0 19 C-0.32742187 18.44828125 -0.65484375 17.8965625 -0.9921875 17.328125 C-2.16787715 14.61219077 -2.20248638 12.69448241 -2.125 9.75 C-2.09792969 8.41195312 -2.09792969 8.41195312 -2.0703125 7.046875 C-2.04710938 6.37140625 -2.02390625 5.6959375 -2 5 C-1.67 5 -1.34 5 -1 5 C-0.67 3.35 -0.34 1.7 0 0 Z " fill="#A6A6A6" transform="translate(103,74)"/>
<path d="M0 0 C3.5625 1.5 3.5625 1.5 6 3 C5.01 3.495 5.01 3.495 4 4 C3.27840576 5.64363134 2.60648579 7.31050386 2 9 C2.66 9 3.32 9 4 9 C4 9.66 4 10.32 4 11 C3.01 11 2.02 11 1 11 C0.67 11.99 0.34 12.98 0 14 C-0.99 15.485 -0.99 15.485 -2 17 C-3.35439668 14.29120665 -3.06501451 11.99066732 -3 9 C-2.34 8.67 -1.68 8.34 -1 8 C-1 6.35 -1 4.7 -1 3 C-3.64 3 -6.28 3 -9 3 C-9 5.31 -9 7.62 -9 10 C-11.29013653 6.5647952 -11.17842973 5.014669 -11 1 C-7.55389094 -0.72305453 -3.77537825 -0.379435 0 0 Z " fill="#CDCDCD" transform="translate(59,123)"/>
<path d="M0 0 C1.3483286 3.06438317 0.89091528 4.37858816 -0.0625 7.6875 C-0.701875 8.780625 -1.34125 9.87375 -2 11 C-5.0625 11.625 -5.0625 11.625 -8 12 C-11.03000827 16.26955711 -10.17549769 21.97881614 -10 27 C-10.33 26.34 -10.66 25.68 -11 25 C-11.66 25 -12.32 25 -13 25 C-12.67 19.72 -12.34 14.44 -12 9 C-10.02 9.495 -10.02 9.495 -8 10 C-7.773125 9.443125 -7.54625 8.88625 -7.3125 8.3125 C-5.63848923 5.36305245 -3.45043651 3.3247731 -1 1 C-0.67 0.67 -0.34 0.34 0 0 Z " fill="#B1B1B1" transform="translate(92,37)"/>
<path d="M0 0 C0.99 0.66 1.98 1.32 3 2 C2.9278125 2.75925781 2.855625 3.51851562 2.78125 4.30078125 C2.6884375 5.29464844 2.595625 6.28851563 2.5 7.3125 C2.4071875 8.29863281 2.314375 9.28476563 2.21875 10.30078125 C1.95961143 13.04702139 1.95961143 13.04702139 2 16 C2.66 16.33 3.32 16.66 4 17 C0.04 17 -3.92 17 -8 17 C-8.33 15.68 -8.66 14.36 -9 13 C-6.50935112 12.31292445 -4.62113708 12 -2 12 C-1.93941406 11.30132812 -1.87882812 10.60265625 -1.81640625 9.8828125 C-1.73261719 8.97273437 -1.64882813 8.06265625 -1.5625 7.125 C-1.48128906 6.22007812 -1.40007813 5.31515625 -1.31640625 4.3828125 C-1 2 -1 2 0 0 Z " fill="#171717" transform="translate(53,166)"/>
<path d="M0 0 C2.25 1.01953125 2.25 1.01953125 4 2 C3.06027344 2.27263672 3.06027344 2.27263672 2.1015625 2.55078125 C1.28429688 2.80214844 0.46703125 3.05351563 -0.375 3.3125 C-1.18710937 3.55613281 -1.99921875 3.79976563 -2.8359375 4.05078125 C-5.33184629 4.91368185 -5.33184629 4.91368185 -7 8 C-7 7.34 -7 6.68 -7 6 C-7.66 6 -8.32 6 -9 6 C-8.67 6.7425 -8.34 7.485 -8 8.25 C-6.59675861 13.5121552 -6.84230438 18.5857837 -7 24 C-8.71773591 20.98703581 -9.28279891 18.63556731 -9.5 15.1875 C-9.85196478 10.86793219 -10.65854019 7.11381009 -12 3 C-8.44264541 -0.55735459 -4.77480031 -0.7180852 0 0 Z " fill="#949494" transform="translate(53,120)"/>
<path d="M0 0 C0.66 0 1.32 0 2 0 C2 0.66 2 1.32 2 2 C3.32 2.66 4.64 3.32 6 4 C5.49396008 6.16874252 5.00016187 7.99967627 4 10 C3.92934383 12.04055005 3.91578024 14.08334257 3.9375 16.125 C3.95103516 17.76855469 3.95103516 17.76855469 3.96484375 19.4453125 C3.97644531 20.28835937 3.98804687 21.13140625 4 22 C3.67 21.34 3.34 20.68 3 20 C2.34 20 1.68 20 1 20 C-1.69679171 13.59511969 -1.9202046 6.66695037 0 0 Z " fill="#121212" transform="translate(123,84)"/>
<path d="M0 0 C-0.66 0 -1.32 0 -2 0 C-2.268125 0.721875 -2.53625 1.44375 -2.8125 2.1875 C-5.87323944 9.43661972 -5.87323944 9.43661972 -9 11 C-9 15.29 -9 19.58 -9 24 C-11.02144324 19.95711353 -11.45697842 17.50414959 -11.8125 13.0625 C-11.92207031 11.85722656 -12.03164062 10.65195312 -12.14453125 9.41015625 C-11.98429064 5.62934393 -11.33120827 3.9421456 -9 1 C-5.34368888 -0.67580926 -3.85830705 -1.28610235 0 0 Z " fill="#2F2F2F" transform="translate(93,48)"/>
<path d="M0 0 C2.97 0.33 5.94 0.66 9 1 C9 1.66 9 2.32 9 3 C10.918125 2.938125 10.918125 2.938125 12.875 2.875 C15.0546875 2.8046875 15.0546875 2.8046875 17 3 C17.66 3.66 18.32 4.32 19 5 C17 6 17 6 14 6 C12.66018514 6.3062434 11.32488113 6.63451555 10 7 C9.34 5.68 8.68 4.36 8 3 C7.34 3 6.68 3 6 3 C6 3.66 6 4.32 6 5 C4.68 5.33 3.36 5.66 2 6 C2 7.32 2 8.64 2 10 C1.34 9.67 0.68 9.34 0 9 C0 8.01 0 7.02 0 6 C-0.99 7.98 -1.98 9.96 -3 12 C-3.33 12 -3.66 12 -4 12 C-3.55778881 7.40100366 -3.09043777 4.49353835 0 1 C0 0.67 0 0.34 0 0 Z " fill="#232323" transform="translate(92,32)"/>
<path d="M0 0 C1.32 0.66 2.64 1.32 4 2 C3.01 2.495 3.01 2.495 2 3 C2.495 3.7425 2.495 3.7425 3 4.5 C5.54164973 10.85412434 3.65142705 17.63020994 2 24 C0.5 22.625 0.5 22.625 -1 21 C-1 20.34 -1 19.68 -1 19 C-1.99 19 -2.98 19 -4 19 C-4 18.01 -4 17.02 -4 16 C-0.25 14.875 -0.25 14.875 2 16 C2 14.02 2 12.04 2 10 C1.01 10 0.02 10 -1 10 C-0.67 6.7 -0.34 3.4 0 0 Z " fill="#A4A4A4" transform="translate(105,105)"/>
<path d="M0 0 C0.99 0 1.98 0 3 0 C7.1346782 12.12838938 6.119032 25.35615649 6 38 C5.34 38 4.68 38 4 38 C3.97494385 37.44014404 3.9498877 36.88028809 3.92407227 36.3034668 C3.80796255 33.76458695 3.6853042 31.22606447 3.5625 28.6875 C3.52318359 27.80642578 3.48386719 26.92535156 3.44335938 26.01757812 C3.38051758 24.74624023 3.38051758 24.74624023 3.31640625 23.44921875 C3.27974854 22.66893311 3.24309082 21.88864746 3.20532227 21.0847168 C3.05874737 18.80670899 3.05874737 18.80670899 2 16 C1.80068163 14.21167134 1.63763194 12.41913062 1.5 10.625 C1.22093834 7.00716496 0.7738122 3.54663925 0 0 Z " fill="#A2A2A2" transform="translate(127,64)"/>
<path d="M0 0 C0 0.99 0 1.98 0 3 C-7.08549358 6.70459817 -12.80894261 9.3276423 -21 9 C-20.67 8.01 -20.34 7.02 -20 6 C-17.125 4.875 -17.125 4.875 -14 4 C-13.01 3.67 -12.02 3.34 -11 3 C-10.34 3.33 -9.68 3.66 -9 4 C-8.67 3.34 -8.34 2.68 -8 2 C-6.1875 1.4375 -6.1875 1.4375 -4 1 C-2.88625 0.7215625 -2.88625 0.7215625 -1.75 0.4375 C-1.1725 0.293125 -0.595 0.14875 0 0 Z " fill="#C5C5C5" transform="translate(185,87)"/>
<path d="M0 0 C2.64 0 5.28 0 8 0 C8 1.32 8 2.64 8 4 C8.66 4 9.32 4 10 4 C15.07802691 12.4690583 15.07802691 12.4690583 14.88671875 16.22265625 C14.3125 18.125 14.3125 18.125 13 21 C12.34 21 11.68 21 11 21 C10.81824219 19.96939453 10.81824219 19.96939453 10.6328125 18.91796875 C10.46523437 18.01691406 10.29765625 17.11585937 10.125 16.1875 C9.96257812 15.29417969 9.80015625 14.40085937 9.6328125 13.48046875 C9.08811551 10.77272154 9.08811551 10.77272154 7 8 C6.875 4.8125 6.875 4.8125 7 2 C4.69 1.67 2.38 1.34 0 1 C0 0.67 0 0.34 0 0 Z " fill="#BFBFBF" transform="translate(113,37)"/>
<path d="M0 0 C0.66 0 1.32 0 2 0 C2 8.25 2 16.5 2 25 C2.66 25 3.32 25 4 25 C4 25.66 4 26.32 4 27 C4.66 27.33 5.32 27.66 6 28 C4.35 28.66 2.7 29.32 1 30 C-0.40912096 27.18175808 -0.11183553 24.82748718 -0.09765625 21.6796875 C-0.09443359 20.42285156 -0.09121094 19.16601562 -0.08789062 17.87109375 C-0.07951172 16.55238281 -0.07113281 15.23367187 -0.0625 13.875 C-0.05748489 12.53515789 -0.05292201 11.195314 -0.04882812 9.85546875 C-0.03701086 6.57026794 -0.02053617 3.28515603 0 0 Z " fill="#9C9C9C" transform="translate(38,136)"/>
<path d="M0 0 C-7.22531921 2.40843974 -13.44427668 4.17581289 -21.08984375 4.62109375 C-23.9148141 4.98890868 -25.51354993 5.71784307 -28 7 C-29.32 7 -30.64 7 -32 7 C-32 7.66 -32 8.32 -32 9 C-34.91482778 9.80967438 -36.46113217 10.21845993 -39.3125 9.0625 C-39.869375 8.711875 -40.42625 8.36125 -41 8 C-37.71508627 5.81005752 -36.16904361 5.64722661 -32.3125 5.375 C-31.31863281 5.30023438 -30.32476562 5.22546875 -29.30078125 5.1484375 C-28.54152344 5.09945312 -27.78226563 5.05046875 -27 5 C-27 4.34 -27 3.68 -27 3 C-18.585 2.505 -18.585 2.505 -10 2 C-10 1.34 -10 0.68 -10 0 C-2.25 -1.125 -2.25 -1.125 0 0 Z " fill="#8B8B8B" transform="translate(173,96)"/>
<path d="M0 0 C2 2 2 2 2 5 C4.31 5 6.62 5 9 5 C9.33 5.66 9.66 6.32 10 7 C12.01669827 8.13350534 12.01669827 8.13350534 14 9 C9.36602928 9.18172434 6.24653972 8.76939155 2 7 C-1.69418201 8.231394 -3.35109746 10.20791354 -6 13 C-6.125 10.125 -6.125 10.125 -6 7 C-5.34 6.34 -4.68 5.68 -4 5 C-3.30251417 3.68252676 -2.63040043 2.35085807 -2 1 C-1.34 1.33 -0.68 1.66 0 2 C0 1.34 0 0.68 0 0 Z " fill="#A8A8A8" transform="translate(94,26)"/>
<path d="M0 0 C1.70349609 0.27650391 1.70349609 0.27650391 3.44140625 0.55859375 C4.57449219 0.72488281 5.70757812 0.89117187 6.875 1.0625 C10.37835522 2.10782072 11.7365492 3.17623131 14.00390625 5.99609375 C15.06402568 7.96488698 16.07861474 9.96045242 17.00390625 11.99609375 C16.01390625 13.48109375 16.01390625 13.48109375 15.00390625 14.99609375 C14.81828125 14.08859375 14.63265625 13.18109375 14.44140625 12.24609375 C12.26262199 7.32014673 8.49313432 6.00829295 3.765625 4.0859375 C1.85705261 3.35708659 -0.06831363 2.67250783 -1.99609375 1.99609375 C-1.99609375 2.65609375 -1.99609375 3.31609375 -1.99609375 3.99609375 C-2.98609375 4.32609375 -3.97609375 4.65609375 -4.99609375 4.99609375 C-5.32609375 4.33609375 -5.65609375 3.67609375 -5.99609375 2.99609375 C-4.09136131 0.3321797 -3.34785943 -0.00436488 0 0 Z " fill="#959595" transform="translate(51.99609375,111.00390625)"/>
<path d="M0 0 C1.98 0 3.96 0 6 0 C6 2.97 6 5.94 6 9 C5.34 9 4.68 9 4 9 C4 9.99 4 10.98 4 12 C1 11 1 11 -0.25 8.8125 C-1.12860506 5.51773102 -0.76557916 3.29199038 0 0 Z " fill="#787878" transform="translate(111,146)"/>
<path d="M0 0 C-0.99 0 -1.98 0 -3 0 C0.31207682 4.10697526 2.88475093 4.4209152 8 5 C8.33 5.66 8.66 6.32 9 7 C8.21625 7.433125 7.4325 7.86625 6.625 8.3125 C3.78301625 9.89220247 3.78301625 9.89220247 2 13 C1.76925781 12.45730469 1.53851563 11.91460937 1.30078125 11.35546875 C-0.78377981 6.7826174 -2.24227654 4.14097556 -7 2 C-7.763125 1.608125 -8.52625 1.21625 -9.3125 0.8125 C-9.869375 0.544375 -10.42625 0.27625 -11 0 C-3.57142857 -1.28571429 -3.57142857 -1.28571429 0 0 Z " fill="#7D7D7D" transform="translate(68,109)"/>
<path d="M0 0 C-0.28086097 6.06659703 -0.87273712 12.24492812 -5 17 C-7.75213055 18.26819018 -9.94718259 18.59295768 -13 19 C-13 18.34 -13 17.68 -13 17 C-12.01 17 -11.02 17 -10 17 C-9.67 16.01 -9.34 15.02 -9 14 C-6.9375 13.3125 -6.9375 13.3125 -5 13 C-4.96261719 12.39671875 -4.92523438 11.7934375 -4.88671875 11.171875 C-3.96774194 0 -3.96774194 0 0 0 Z " fill="#979797" transform="translate(92,95)"/>
<path d="M0 0 C2.97 0.495 2.97 0.495 6 1 C6.36256858 2.4562672 6.71479793 3.91511185 7.0625 5.375 C7.25972656 6.18710937 7.45695312 6.99921875 7.66015625 7.8359375 C8 10 8 10 7 12 C6.34 12 5.68 12 5 12 C4.67 11.34 4.34 10.68 4 10 C3.34 10 2.68 10 2 10 C1.67 10.66 1.34 11.32 1 12 C1 10.35 1 8.7 1 7 C0.01 7.33 -0.98 7.66 -2 8 C-2 6.68 -2 5.36 -2 4 C-1.34 4.33 -0.68 4.66 0 5 C0.99 4.67 1.98 4.34 3 4 C2.67 3.67 2.34 3.34 2 3 C2 2.34 2 1.68 2 1 C1.34 0.67 0.68 0.34 0 0 Z " fill="#242424" transform="translate(114,38)"/>
<path d="M0 0 C2.27120764 0.00600055 4.54233286 0.05599796 6.8125 0.125 C8.70935547 0.15980469 8.70935547 0.15980469 10.64453125 0.1953125 C14 1 14 1 15.94921875 3.8671875 C17 7 17 7 17 10 C15.35 9.67 13.7 9.34 12 9 C11.67 7.35 11.34 5.7 11 4 C7.7 3.67 4.4 3.34 1 3 C0.67 2.01 0.34 1.02 0 0 Z " fill="#ADADAD" transform="translate(100,60)"/>
<path d="M0 0 C0.66 0.33 1.32 0.66 2 1 C1.67 1.66 1.34 2.32 1 3 C0.55001562 8.81840263 1.04262072 13.49487076 3 19 C3.07522969 21.33212027 3.09325876 23.6685311 3 26 C2.34 26 1.68 26 1 26 C-1.27474277 22.58788584 -1.56629644 20.3431471 -2.125 16.3125 C-2.29257813 15.13300781 -2.46015625 13.95351562 -2.6328125 12.73828125 C-2.75398438 11.83464844 -2.87515625 10.93101563 -3 10 C-2.67 10 -2.34 10 -2 10 C-1.34 6.7 -0.68 3.4 0 0 Z " fill="#4C4C4C" transform="translate(87,63)"/>
<path d="M0 0 C0.99 0 1.98 0 3 0 C3 0.66 3 1.32 3 2 C2.01 2 1.02 2 0 2 C0 4.97 0 7.94 0 11 C1.32 10.67 2.64 10.34 4 10 C2.25 13.875 2.25 13.875 0 15 C-0.68472665 16.88764903 -0.68472665 16.88764903 -1.125 19.0625 C-1.29257813 19.79597656 -1.46015625 20.52945312 -1.6328125 21.28515625 C-1.75398437 21.85105469 -1.87515625 22.41695312 -2 23 C-2.33 23 -2.66 23 -3 23 C-2.8904307 19.54099522 -2.75973152 16.08310891 -2.625 12.625 C-2.5940625 11.64015625 -2.563125 10.6553125 -2.53125 9.640625 C-2.49257812 8.69960938 -2.45390625 7.75859375 -2.4140625 6.7890625 C-2.3826416 5.91975098 -2.3512207 5.05043945 -2.31884766 4.15478516 C-2 2 -2 2 0 0 Z " fill="#B2B2B2" transform="translate(194,9)"/>
<path d="M0 0 C3.3125 -0.3125 3.3125 -0.3125 7 0 C8.95578117 2.39740918 10 3.87586608 10 7 C8.02 7.33 6.04 7.66 4 8 C0 3.375 0 3.375 0 0 Z " fill="#A1A1A1" transform="translate(91,85)"/>
<path d="M0 0 C2.64 0 5.28 0 8 0 C7.34 1.32 6.68 2.64 6 4 C5.01 4 4.02 4 3 4 C2.67 7.63 2.34 11.26 2 15 C1.34 14.67 0.68 14.34 0 14 C-0.44921875 11.34765625 -0.44921875 11.34765625 -0.6875 8.0625 C-0.77386719 6.98097656 -0.86023438 5.89945312 -0.94921875 4.78515625 C-1 2 -1 2 0 0 Z " fill="#151515" transform="translate(84,59)"/>
<path d="M0 0 C4.12146058 -0.32325181 6.3675734 -0.39022067 9.9375 1.8125 C12 4 12 4 12 7 C11.01 6.67 10.02 6.34 9 6 C8.67 6 8.34 6 8 6 C6.66431979 5.67619874 5.33076989 5.34342449 4 5 C4 5.66 4 6.32 4 7 C3.34 7 2.68 7 2 7 C1.67 6.01 1.34 5.02 1 4 C1.33 3.67 1.66 3.34 2 3 C1.34 2.67 0.68 2.34 0 2 C0 1.34 0 0.68 0 0 Z " fill="#3A3A3A" transform="translate(89,75)"/>
<path d="M0 0 C2.475 0.99 2.475 0.99 5 2 C5 2.66 5 3.32 5 4 C5.99 4.33 6.98 4.66 8 5 C7.01 5.33 6.02 5.66 5 6 C5.02320312 6.56847656 5.04640625 7.13695313 5.0703125 7.72265625 C5.19191688 12.92558648 4.67723492 17.07312243 3 22 C2.67 22 2.34 22 2 22 C1.89847201 15.2314676 1.96973056 8.69675136 3 2 C2.01 1.67 1.02 1.34 0 1 C0 0.67 0 0.34 0 0 Z " fill="#676767" transform="translate(98,98)"/>
<path d="M0 0 C2.31305485 2.31305485 2.94362503 3.91917664 3.11352539 7.17651367 C3.10567017 8.40978394 3.10567017 8.40978394 3.09765625 9.66796875 C3.09282227 11.00698242 3.09282227 11.00698242 3.08789062 12.37304688 C3.07951172 13.30181641 3.07113281 14.23058594 3.0625 15.1875 C3.05798828 16.12787109 3.05347656 17.06824219 3.04882812 18.03710938 C3.03704626 20.35813712 3.02059558 22.67903644 3 25 C2.34 25 1.68 25 1 25 C1.01740234 24.00419922 1.01740234 24.00419922 1.03515625 22.98828125 C1.1358579 17.71410148 1.1358579 17.71410148 0.5 12.5 C-0.32530994 8.37345029 -0.07330513 4.19468238 0 0 Z " fill="#ACACAC" transform="translate(199,47)"/>
<path d="M0 0 C2.5 2.0625 2.5 2.0625 5 5 C5.3125 8.8125 5.3125 8.8125 5 12 C4.67 11.34 4.34 10.68 4 10 C3.34 10 2.68 10 2 10 C2 10.99 2 11.98 2 13 C1.34 12.67 0.68 12.34 0 12 C-1.13146175 7.58729917 -0.93074576 4.42104236 0 0 Z " fill="#B1B1B1" transform="translate(205,15)"/>
<path d="M0 0 C3.01399879 4.52099819 3.12108347 7.86032065 3.0625 13.25 C3.05347656 14.32765625 3.04445312 15.4053125 3.03515625 16.515625 C3.02355469 17.33546875 3.01195312 18.1553125 3 19 C2.01 19.33 1.02 19.66 0 20 C0 13.4 0 6.8 0 0 Z " fill="#BEBEBE" transform="translate(42,133)"/>
<path d="M0 0 C1.65 0 3.3 0 5 0 C4.67 0.99 4.34 1.98 4 3 C8.29299643 4.26264601 10.87831311 3.62950412 15 2 C14.67 2.99 14.34 3.98 14 5 C9.96112521 6.71068044 6.15154803 7.32901372 1.9375 6.125 C1.298125 5.75375 0.65875 5.3825 0 5 C0 3.35 0 1.7 0 0 Z " fill="#B2B2B2" transform="translate(132,96)"/>
<path d="M0 0 C0 0.66 0 1.32 0 2 C0.99 2 1.98 2 3 2 C2.67 3.32 2.34 4.64 2 6 C1.21625 6.144375 0.4325 6.28875 -0.375 6.4375 C-2.96421018 6.87798925 -2.96421018 6.87798925 -5 8 C-5 6.68 -5 5.36 -5 4 C-5.66 4 -6.32 4 -7 4 C-7 3.34 -7 2.68 -7 2 C-4.35261084 0.5393715 -3.10551666 0 0 0 Z " fill="#474747" transform="translate(111,71)"/>
<path d="M0 0 C0 1.32 0 2.64 0 4 C-0.99 4.33 -1.98 4.66 -3 5 C-2.67 3.68 -2.34 2.36 -2 1 C-2.66 1 -3.32 1 -4 1 C-4.33 2.98 -4.66 4.96 -5 7 C-6.32 7.33 -7.64 7.66 -9 8 C-9 5.69 -9 3.38 -9 1 C-5.57367167 -0.61798838 -3.61944899 -1.34053666 0 0 Z " fill="#7F7F7F" transform="translate(203,12)"/>
<path d="M0 0 C0.66 0 1.32 0 2 0 C4.94397288 7.7629761 5.34937193 14.74447081 5 23 C4.34 22.67 3.68 22.34 3 22 C2.49755859 20.08227539 2.49755859 20.08227539 2.1484375 17.59765625 C2.01953125 16.70755859 1.890625 15.81746094 1.7578125 14.90039062 C1.63148437 13.96388672 1.50515625 13.02738281 1.375 12.0625 C1.2409375 11.12986328 1.106875 10.19722656 0.96875 9.23632812 C0 2.4007095 0 2.4007095 0 0 Z " fill="#7C7C7C" transform="translate(44,126)"/>
<path d="M0 0 C1.36511719 0.29197266 1.36511719 0.29197266 2.7578125 0.58984375 C3.45648438 0.74582031 4.15515625 0.90179688 4.875 1.0625 C3.225 2.7125 1.575 4.3625 -0.125 6.0625 C-1.445 5.0725 -2.765 4.0825 -4.125 3.0625 C-5.115 3.5575 -5.115 3.5575 -6.125 4.0625 C-6.785 3.7325 -7.445 3.4025 -8.125 3.0625 C-7.795 2.0725 -7.465 1.0825 -7.125 0.0625 C-4.4030754 -1.2984623 -2.9418043 -0.64116248 0 0 Z " fill="#CECECE" transform="translate(202.125,112.9375)"/>
<path d="M0 0 C4.29 0.66 8.58 1.32 13 2 C13.33 2.99 13.66 3.98 14 5 C10.0914632 6.3028456 6.97677286 5.9527685 3 5 C1 3.5625 1 3.5625 0 2 C0 1.34 0 0.68 0 0 Z " fill="#BDBDBD" transform="translate(65,109)"/>
<path d="M0 0 C0.66 0 1.32 0 2 0 C2.33 0.99 2.66 1.98 3 3 C3.66 3 4.32 3 5 3 C5 2.34 5 1.68 5 1 C5.99 0.67 6.98 0.34 8 0 C7.1875 1.9375 7.1875 1.9375 6 4 C5.01 4.33 4.02 4.66 3 5 C3.66 7.31 4.32 9.62 5 12 C4.34 12 3.68 12 3 12 C3 10.68 3 9.36 3 8 C1.68 8 0.36 8 -1 8 C-1.625 5.6875 -1.625 5.6875 -2 3 C-1.34 2.01 -0.68 1.02 0 0 Z " fill="#ADADAD" transform="translate(197,28)"/>
<path d="M0 0 C0.33 0 0.66 0 1 0 C1.25 2.75 1.25 2.75 1 6 C-0.9375 8.25 -0.9375 8.25 -3 10 C-3.33 10.66 -3.66 11.32 -4 12 C-4.99 12.33 -5.98 12.66 -7 13 C-7.66 13.66 -8.32 14.32 -9 15 C-9.8125 13.3125 -9.8125 13.3125 -10 11 C-7.6875 8.25 -7.6875 8.25 -5 6 C-4.34 6 -3.68 6 -3 6 C-3 5.01 -3 4.02 -3 3 C-2.34 3 -1.68 3 -1 3 C-0.67 2.01 -0.34 1.02 0 0 Z " fill="#BBBBBB" transform="translate(210,22)"/>
<path d="M0 0 C0.28875 0.61875 0.5775 1.2375 0.875 1.875 C1.93720042 4.13325765 1.93720042 4.13325765 4 6 C5.17325935 10.58637747 4.83352675 14.36929583 4 19 C2.35 18.67 0.7 18.34 -1 18 C-0.01 17.67 0.98 17.34 2 17 C2 14.03 2 11.06 2 8 C1.34 8 0.68 8 0 8 C0 5.36 0 2.72 0 0 Z " fill="#9D9D9D" transform="translate(46,144)"/>
<path d="M0 0 C2.31840535 2.31840535 2.44763644 3.26354384 2.875 6.4375 C2.99617188 7.21996094 3.11734375 8.00242187 3.2421875 8.80859375 C3 11 3 11 1.0078125 12.78515625 C0.34523438 13.18605469 -0.31734375 13.58695313 -1 14 C-1.02685938 11.85423363 -1.04633088 9.70837355 -1.0625 7.5625 C-1.07410156 6.36753906 -1.08570312 5.17257813 -1.09765625 3.94140625 C-1 1 -1 1 0 0 Z " fill="#B0B0B0" transform="translate(81,66)"/>
<path d="M0 0 C0.66 0 1.32 0 2 0 C1.48725306 4.35834901 0.65787315 7.95893419 -1 12 C-1.37593066 13.9924325 -1.71979545 15.9918674 -2 18 C-3.65 17.67 -5.3 17.34 -7 17 C-7.33 17.99 -7.66 18.98 -8 20 C-8 18.35 -8 16.7 -8 15 C-7.37480469 14.91105469 -6.74960938 14.82210937 -6.10546875 14.73046875 C-3.89231803 14.21082797 -3.89231803 14.21082797 -2.98828125 12.36328125 C-2.76527344 11.68652344 -2.54226562 11.00976562 -2.3125 10.3125 C-2.0753125 9.59707031 -1.838125 8.88164062 -1.59375 8.14453125 C-0.84795691 5.45084436 -0.34655535 2.77244279 0 0 Z " fill="#888888" transform="translate(118,129)"/>
<path d="M0 0 C0.99 0 1.98 0 3 0 C3.33 3.3 3.66 6.6 4 10 C3.01 10.33 2.02 10.66 1 11 C-0.625 8.875 -0.625 8.875 -2 6 C-1.1875 2.6875 -1.1875 2.6875 0 0 Z " fill="#0C0C0C" transform="translate(48,170)"/>
<path d="M0 0 C3.58413979 3.58413979 3.159435 7.60546454 3.1875 12.5 C3.20167969 13.6240625 3.21585937 14.748125 3.23046875 15.90625 C3.00970218 18.86976056 2.5460647 20.5067415 1 23 C1.01160156 22.14535156 1.02320312 21.29070312 1.03515625 20.41015625 C1.04417969 19.30542969 1.05320312 18.20070313 1.0625 17.0625 C1.07410156 15.96035156 1.08570312 14.85820313 1.09765625 13.72265625 C1.31262571 11.08552366 1.31262571 11.08552366 0 10 C-0.07205511 8.31391034 -0.08386068 6.62499341 -0.0625 4.9375 C-0.05347656 4.01839844 -0.04445313 3.09929687 -0.03515625 2.15234375 C-0.02355469 1.44207031 -0.01195313 0.73179688 0 0 Z " fill="#696969" transform="translate(122,98)"/>
<path d="M0 0 C-2.3125 2.5 -2.3125 2.5 -5 5 C-5.99 5 -6.98 5 -8 5 C-8.33 5.66 -8.66 6.32 -9 7 C-9.66 5.35 -10.32 3.7 -11 2 C-7.17679443 0.57741188 -4.08718695 -0.24042276 0 0 Z " fill="#5E5E5E" transform="translate(112,93)"/>
<path d="M0 0 C0.33 0.99 0.66 1.98 1 3 C1.99 3 2.98 3 4 3 C8.59944454 8.14699746 9.82947106 12.16333972 10 19 C9.72027344 18.42378906 9.44054687 17.84757812 9.15234375 17.25390625 C8.04119631 15.08057719 6.84615416 13.01294084 5.5625 10.9375 C5.15128906 10.26589844 4.74007812 9.59429687 4.31640625 8.90234375 C3.07447419 6.95183 3.07447419 6.95183 1.33984375 5.50390625 C0 4 0 4 0 0 Z " fill="#838383" transform="translate(100,121)"/>
<path d="M0 0 C0.99 0 1.98 0 3 0 C3.33 0.99 3.66 1.98 4 3 C4.66 3.66 5.32 4.32 6 5 C6.125 8.125 6.125 8.125 6 11 C3 10 3 10 1.3125 7.1875 C0 4 0 4 0 0 Z " fill="#CFCFCF" transform="translate(122,37)"/>
<path d="M0 0 C2.64 0 5.28 0 8 0 C8 1.32 8 2.64 8 4 C8.66 4 9.32 4 10 4 C12.41685712 8.22949995 13.34833144 11.12335991 13 16 C12.67 16 12.34 16 12 16 C11.5978125 14.2984375 11.5978125 14.2984375 11.1875 12.5625 C10.795625 11.386875 10.40375 10.21125 10 9 C9.01 8.67 8.02 8.34 7 8 C7 6.02 7 4.04 7 2 C4.69 1.67 2.38 1.34 0 1 C0 0.67 0 0.34 0 0 Z " fill="#9B9B9B" transform="translate(113,37)"/>
<path d="M0 0 C0.95465783 2.16967689 1.14401212 3.56328793 0.3984375 5.82421875 C-0.35870385 7.5684743 -1.17609198 9.28627131 -2 11 C-2.99 11 -3.98 11 -5 11 C-5.3125 8.3125 -5.3125 8.3125 -5 5 C-2.5 2.125 -2.5 2.125 0 0 Z " fill="#8D8D8D" transform="translate(92,37)"/>
<path d="M0 0 C0.33 0 0.66 0 1 0 C3.0662997 5.71271093 3.0006709 10.03654233 2 16 C-0.30925485 13.55420823 -0.99001814 12.40557866 -1.07421875 8.984375 C-0.94660156 7.91703125 -0.81898437 6.8496875 -0.6875 5.75 C-0.56761719 4.67234375 -0.44773437 3.5946875 -0.32421875 2.484375 C-0.21722656 1.66453125 -0.11023438 0.8446875 0 0 Z " fill="#464646" transform="translate(126,62)"/>
<path d="M0 0 C0.99 0.99 1.98 1.98 3 3 C2.34 4.98 1.68 6.96 1 9 C0.34 8.67 -0.32 8.34 -1 8 C-1 7.01 -1 6.02 -1 5 C-1.99 6.98 -2.98 8.96 -4 11 C-4.33 11 -4.66 11 -5 11 C-4.50769231 4.6 -4.50769231 4.6 -1.9375 1.5625 C-0.9784375 0.7890625 -0.9784375 0.7890625 0 0 Z " fill="#4E4E4E" transform="translate(93,33)"/>
<path d="M0 0 C0.33 0 0.66 0 1 0 C0.88597936 2.27141109 0.75841495 4.54214552 0.625 6.8125 C0.55539063 8.07707031 0.48578125 9.34164062 0.4140625 10.64453125 C0 14 0 14 -2 17 C-1.67 15.02 -1.34 13.04 -1 11 C-1.66 11 -2.32 11 -3 11 C-2.67 8.36 -2.34 5.72 -2 3 C-1.34 3 -0.68 3 0 3 C0 2.01 0 1.02 0 0 Z " fill="#939393" transform="translate(123,109)"/>
<path d="M0 0 C0.66 0.33 1.32 0.66 2 1 C2 1.66 2 2.32 2 3 C3.65 3.33 5.3 3.66 7 4 C6.01 5.485 6.01 5.485 5 7 C4.34 6.67 3.68 6.34 3 6 C2.67 7.32 2.34 8.64 2 10 C-0.13262124 6.80106814 -0.59021548 4.77001757 -1 1 C-0.67 0.67 -0.34 0.34 0 0 Z " fill="#282828" transform="translate(119,66)"/>
<path d="M0 0 C0.99 0.66 1.98 1.32 3 2 C2.47731534 4.76276177 1.89130413 7.3260876 1 10 C0.01 9.67 -0.98 9.34 -2 9 C-1.34 6.03 -0.68 3.06 0 0 Z " fill="#A2A2A2" transform="translate(53,166)"/>
<path d="M0 0 C0 0.99 0 1.98 0 3 C-3.6125362 4.84827434 -7.2089881 6.55049545 -11 8 C-10.67 6.35 -10.34 4.7 -10 3 C-8.72125 2.87625 -7.4425 2.7525 -6.125 2.625 C-2.65209064 2.30957601 -2.65209064 2.30957601 0 0 Z " fill="#B2B2B2" transform="translate(113,78)"/>
<path d="M0 0 C2.02350324 3.03525486 2.32124018 4.19426202 2.625 7.6875 C2.69976562 8.49574219 2.77453125 9.30398437 2.8515625 10.13671875 C2.90054688 10.75160156 2.94953125 11.36648437 3 12 C1.68 12.33 0.36 12.66 -1 13 C-1.07654536 8.48382401 -1.10228696 4.40914783 0 0 Z " fill="#2C2C2C" transform="translate(122,48)"/>
<path d="M0 0 C0.99 0.33 1.98 0.66 3 1 C1.1875 4 1.1875 4 -1 7 C-1.99 7 -2.98 7 -4 7 C-3.6875 4.625 -3.6875 4.625 -3 2 C-2.01 1.34 -1.02 0.68 0 0 Z " fill="#CECECE" transform="translate(190,116)"/>
<path d="M0 0 C0.33 0 0.66 0 1 0 C1 4.62 1 9.24 1 14 C0.67 14 0.34 14 0 14 C0 11.36 0 8.72 0 6 C-1.32 6 -2.64 6 -4 6 C-2.84826645 3.53199953 -1.95216435 1.95216435 0 0 Z " fill="#8C8C8C" transform="translate(75,164)"/>
<path d="M0 0 C-0.66 0 -1.32 0 -2 0 C-2 1.65 -2 3.3 -2 5 C-3.65 5.33 -5.3 5.66 -7 6 C-7 4.35 -7 2.7 -7 1 C-3.375 -1.125 -3.375 -1.125 0 0 Z " fill="#CDCDCD" transform="translate(200,4)"/>
<path d="M0 0 C0.33 0 0.66 0 1 0 C1 2.97 1 5.94 1 9 C0.34 9 -0.32 9 -1 9 C-1 9.99 -1 10.98 -1 12 C-1.99 11.67 -2.98 11.34 -4 11 C-3.34 10.67 -2.68 10.34 -2 10 C-2.33 8.02 -2.66 6.04 -3 4 C-2.34 4 -1.68 4 -1 4 C-0.67 2.68 -0.34 1.36 0 0 Z " fill="#4C4C4C" transform="translate(116,146)"/>
<path d="M0 0 C0.33 0.66 0.66 1.32 1 2 C1.66 2 2.32 2 3 2 C2.34 4.97 1.68 7.94 1 11 C-0.32 10.34 -1.64 9.68 -3 9 C-2.01 7.35 -1.02 5.7 0 4 C-0.66 3.01 -1.32 2.02 -2 1 C-1.34 0.67 -0.68 0.34 0 0 Z " fill="#B0B0B0" transform="translate(63,123)"/>
<path d="M0 0 C0.99 0 1.98 0 3 0 C4.65 2.97 6.3 5.94 8 9 C7.01 10.485 7.01 10.485 6 12 C5.731875 11.05125 5.46375 10.1025 5.1875 9.125 C4.25013412 5.74732727 4.25013412 5.74732727 1 4 C0.3125 1.875 0.3125 1.875 0 0 Z " fill="#5C5C5C" transform="translate(61,114)"/>
<path d="M0 0 C7.75 0.875 7.75 0.875 10 2 C10 2.66 10 3.32 10 4 C10.66 4 11.32 4 12 4 C12 4.66 12 5.32 12 6 C9.03 5.505 9.03 5.505 6 5 C6 4.34 6 3.68 6 3 C3.03 2.505 3.03 2.505 0 2 C0 1.34 0 0.68 0 0 Z " fill="#999999" transform="translate(64,105)"/>
<path d="M0 0 C-0.33 1.65 -0.66 3.3 -1 5 C-1.33 4.01 -1.66 3.02 -2 2 C-2.928125 2.680625 -3.85625 3.36125 -4.8125 4.0625 C-6.3903125 5.0215625 -6.3903125 5.0215625 -8 6 C-8.99 5.67 -9.98 5.34 -11 5 C-4.85714286 -0.71428571 -4.85714286 -0.71428571 0 0 Z " fill="#BABABA" transform="translate(75,170)"/>
<path d="M0 0 C0.66 1.32 1.32 2.64 2 4 C2.99 4 3.98 4 5 4 C5 5.32 5 6.64 5 8 C4.01 8 3.02 8 2 8 C1.67 9.32 1.34 10.64 1 12 C0.01751476 7.9472484 -0.08159574 4.16138263 0 0 Z " fill="#7A7A7A" transform="translate(121,76)"/>
<path d="M0 0 C0.103125 0.639375 0.20625 1.27875 0.3125 1.9375 C0.539375 2.618125 0.76625 3.29875 1 4 C1.99 4.33 2.98 4.66 4 5 C4 5.66 4 6.32 4 7 C3.01 7 2.02 7 1 7 C0.67 8.32 0.34 9.64 0 11 C-1.125 9.4375 -1.125 9.4375 -2 7 C-1.125 3.25 -1.125 3.25 0 0 Z " fill="#141414" transform="translate(196,73)"/>
<path d="M0 0 C-0.33 1.98 -0.66 3.96 -1 6 C-1.66 5.67 -2.32 5.34 -3 5 C-3 4.34 -3 3.68 -3 3 C-3.99 3 -4.98 3 -6 3 C-6 2.01 -6 1.02 -6 0 C-3.50907189 -1.24546405 -2.58919267 -0.7767578 0 0 Z " fill="#9C9C9C" transform="translate(107,121)"/>
<path d="M0 0 C2 1 2 1 4 3 C4.125 6.125 4.125 6.125 4 9 C3.79375 8.360625 3.5875 7.72125 3.375 7.0625 C2.10461791 4.65074923 2.10461791 4.65074923 -1.125 4.25 C-2.07375 4.1675 -3.0225 4.085 -4 4 C-4 3.01 -4 2.02 -4 1 C-2.68 1.33 -1.36 1.66 0 2 C0 1.34 0 0.68 0 0 Z " fill="#737373" transform="translate(97,79)"/>
<path d="M0 0 C0.66 0 1.32 0 2 0 C2 1.32 2 2.64 2 4 C2.33 3.34 2.66 2.68 3 2 C6.0625 1.375 6.0625 1.375 9 1 C9 1.99 9 2.98 9 4 C4.545 4.495 4.545 4.495 0 5 C0 3.35 0 1.7 0 0 Z " fill="#7B7B7B" transform="translate(104,75)"/>
<path d="M0 0 C0.99 0 1.98 0 3 0 C3 5.28 3 10.56 3 16 C2.67 16 2.34 16 2 16 C1.93941406 15.26394531 1.87882813 14.52789062 1.81640625 13.76953125 C1.73261719 12.79371094 1.64882812 11.81789063 1.5625 10.8125 C1.48128906 9.84957031 1.40007812 8.88664062 1.31640625 7.89453125 C1.02333849 5.21350398 0.57296246 2.6337014 0 0 Z " fill="#949494" transform="translate(127,64)"/>
<path d="M0 0 C1.98 0.495 1.98 0.495 4 1 C4 2.32 4 3.64 4 5 C3.01 5.33 2.02 5.66 1 6 C1 5.34 1 4.68 1 4 C0.34 4 -0.32 4 -1 4 C-0.67 2.68 -0.34 1.36 0 0 Z " fill="#828282" transform="translate(201,23)"/>
<path d="M0 0 C1.65 0.33 3.3 0.66 5 1 C3.68 3.64 2.36 6.28 1 9 C0.34 8.67 -0.32 8.34 -1 8 C-0.67 5.36 -0.34 2.72 0 0 Z " fill="#505050" transform="translate(51,148)"/>
<path d="M0 0 C0.33 0 0.66 0 1 0 C1 3.96 1 7.92 1 12 C0.34 12 -0.32 12 -1 12 C-1.2226746 10.56465159 -1.42761906 9.12654475 -1.625 7.6875 C-1.74101563 6.88699219 -1.85703125 6.08648437 -1.9765625 5.26171875 C-2 3 -2 3 0 0 Z " fill="#ABABAB" transform="translate(120,95)"/>
<path d="M0 0 C2.64 0 5.28 0 8 0 C8 0.66 8 1.32 8 2 C6.35 2 4.7 2 3 2 C3.99 2.66 4.98 3.32 6 4 C4.02 4.33 2.04 4.66 0 5 C-0.33 4.01 -0.66 3.02 -1 2 C-0.67 1.34 -0.34 0.68 0 0 Z " fill="#050505" transform="translate(197,73)"/>
<path d="M0 0 C4 6 4 6 4 9 C2.35 8.67 0.7 8.34 -1 8 C-0.67 5.36 -0.34 2.72 0 0 Z " fill="#A4A4A4" transform="translate(113,61)"/>
<path d="M0 0 C2.0625 0.4375 2.0625 0.4375 4 1 C4 2.65 4 4.3 4 6 C3.67 5.34 3.34 4.68 3 4 C2.34 4 1.68 4 1 4 C1 4.99 1 5.98 1 7 C0.34 6.67 -0.32 6.34 -1 6 C-1.042721 4.33388095 -1.04063832 2.66617115 -1 1 C-0.67 0.67 -0.34 0.34 0 0 Z " fill="#A8A8A8" transform="translate(206,21)"/>
<path d="M0 0 C4.55384615 -0.36923077 4.55384615 -0.36923077 6.8125 1.5 C7.204375 1.995 7.59625 2.49 8 3 C7.67 3.66 7.34 4.32 7 5 C5.35 4.01 3.7 3.02 2 2 C1.67 3.32 1.34 4.64 1 6 C0 5 0 5 -0.0625 2.4375 C-0.041875 1.633125 -0.02125 0.82875 0 0 Z " fill="#B1B1B1" transform="translate(198,4)"/>
<path d="M0 0 C0.99 0.33 1.98 0.66 3 1 C3.12375 1.969375 3.2475 2.93875 3.375 3.9375 C3.684375 5.4534375 3.684375 5.4534375 4 7 C4.66 7.33 5.32 7.66 6 8 C4.35 7.67 2.7 7.34 1 7 C0 2.25 0 2.25 0 0 Z " fill="#202020" transform="translate(51,175)"/>
<path d="M0 0 C2.625 -0.1875 2.625 -0.1875 5 0 C5 0.99 5 1.98 5 3 C2.5 4.6875 2.5 4.6875 0 6 C0 5.34 0 4.68 0 4 C-0.66 3.67 -1.32 3.34 -2 3 C-1.34 2.01 -0.68 1.02 0 0 Z " fill="#191919" transform="translate(63,170)"/>
<path d="M0 0 C0.66 0.33 1.32 0.66 2 1 C1.67 1.99 1.34 2.98 1 4 C0.34 4 -0.32 4 -1 4 C-1.33 5.32 -1.66 6.64 -2 8 C-2 7.34 -2 6.68 -2 6 C-3.32 5.67 -4.64 5.34 -6 5 C-5.67 4.34 -5.34 3.68 -5 3 C-2.4375 2.375 -2.4375 2.375 0 2 C0 1.34 0 0.68 0 0 Z " fill="#060606" transform="translate(53,161)"/>
<path d="M0 0 C1.32 0.33 2.64 0.66 4 1 C4.33 2.32 4.66 3.64 5 5 C2.03 4.67 -0.94 4.34 -4 4 C-2.68 3.34 -1.36 2.68 0 2 C0 1.34 0 0.68 0 0 Z " fill="#ABABAB" transform="translate(56,119)"/>
<path d="M0 0 C3.5 0.3125 3.5 0.3125 7 1 C7.33 1.66 7.66 2.32 8 3 C5.69 3.33 3.38 3.66 1 4 C0.34 3.01 -0.32 2.02 -1 1 C-0.67 0.67 -0.34 0.34 0 0 Z " fill="#949494" transform="translate(69,113)"/>
<path d="M0 0 C0.66 0.66 1.32 1.32 2 2 C1.9765625 4.3828125 1.9765625 4.3828125 1.625 7.125 C1.51414062 8.03507812 1.40328125 8.94515625 1.2890625 9.8828125 C1.19367188 10.58148438 1.09828125 11.28015625 1 12 C0.34 12 -0.32 12 -1 12 C-2.23147292 8.30558125 -1.44298991 7.48015214 0 4 C0 2.68 0 1.36 0 0 Z " fill="#C0C0C0" transform="translate(86,96)"/>
<path d="M0 0 C1.32 0 2.64 0 4 0 C4 0.66 4 1.32 4 2 C3.195625 2.45375 2.39125 2.9075 1.5625 3.375 C-1.15236193 4.73420995 -1.15236193 4.73420995 -1.8125 7.1875 C-1.9053125 8.0846875 -1.9053125 8.0846875 -2 9 C-2.66 8.67 -3.32 8.34 -4 8 C-2.25 2.25 -2.25 2.25 0 0 Z " fill="#A6A6A6" transform="translate(113,100)"/>
<path d="M0 0 C1.98 0 3.96 0 6 0 C6.33 1.65 6.66 3.3 7 5 C6.67 4.34 6.34 3.68 6 3 C2.9254644 3.7763932 2.9254644 3.7763932 1 6 C0.67 4.02 0.34 2.04 0 0 Z " fill="#2E2E2E" transform="translate(45,167)"/>
<path d="M0 0 C1.32 0.33 2.64 0.66 4 1 C3.04270084 2.12588014 2.08412105 3.2506715 1.125 4.375 C0.59132813 5.00148438 0.05765625 5.62796875 -0.4921875 6.2734375 C-1.61432007 7.55836651 -2.79371975 8.79371975 -4 10 C-3.6875 7.625 -3.6875 7.625 -3 5 C-2.01 4.34 -1.02 3.68 0 3 C0 2.01 0 1.02 0 0 Z " fill="#C5C5C5" transform="translate(41,112)"/>
<path d="M0 0 C0.33 0.99 0.66 1.98 1 3 C0.030625 3.45375 -0.93875 3.9075 -1.9375 4.375 C-5.07079582 5.65786221 -5.07079582 5.65786221 -6 8 C-6.66 8 -7.32 8 -8 8 C-7.875 6.1875 -7.875 6.1875 -7 4 C-4 2.3125 -4 2.3125 -1 1 C-0.67 0.67 -0.34 0.34 0 0 Z " fill="#A4A4A4" transform="translate(111,94)"/>
<path d="M0 0 C0.33 0 0.66 0 1 0 C1.38133299 1.9914056 1.71325582 3.99279077 2 6 C1 7 1 7 -1.5625 7.0625 C-2.7690625 7.0315625 -2.7690625 7.0315625 -4 7 C-2.68 4.69 -1.36 2.38 0 0 Z " fill="#A1A1A1" transform="translate(92,67)"/>
<path d="M0 0 C1.32 0.66 2.64 1.32 4 2 C3.67 3.32 3.34 4.64 3 6 C0.03 5.505 0.03 5.505 -3 5 C-2.34 4.67 -1.68 4.34 -1 4 C-0.34786708 1.97536745 -0.34786708 1.97536745 0 0 Z " fill="#C0C0C0" transform="translate(107,63)"/>
<path d="M0 0 C0.99 0.66 1.98 1.32 3 2 C1.68 4.31 0.36 6.62 -1 9 C-2.0326802 6.21176345 -2.04509293 5.1322726 -1.0625 2.25 C-0.711875 1.5075 -0.36125 0.765 0 0 Z " fill="#171717" transform="translate(56,168)"/>
<path d="M0 0 C1.32 0 2.64 0 4 0 C4 0.66 4 1.32 4 2 C3.01 2.66 2.02 3.32 1 4 C0.27034634 6.56282742 0.27034634 6.56282742 0 9 C-0.33 9 -0.66 9 -1 9 C-1.625 5.625 -1.625 5.625 -2 2 C-1.34 1.34 -0.68 0.68 0 0 Z " fill="#292929" transform="translate(167,164)"/>
<path d="M0 0 C0.763125 0.350625 1.52625 0.70125 2.3125 1.0625 C5.04759379 2.32360884 5.04759379 2.32360884 8 1 C7.67 2.32 7.34 3.64 7 5 C4.03 4.505 4.03 4.505 1 4 C0.67 2.68 0.34 1.36 0 0 Z " fill="#A6A6A6" transform="translate(50,143)"/>
<path d="M0 0 C2.475 0.495 2.475 0.495 5 1 C3.625 3.5 3.625 3.5 2 6 C1.34 6 0.68 6 0 6 C0 4.02 0 2.04 0 0 Z " fill="#B0B0B0" transform="translate(164,127)"/>
<path d="M0 0 C3.125 -0.1875 3.125 -0.1875 6 0 C5.67 1.32 5.34 2.64 5 4 C2.69 3.67 0.38 3.34 -2 3 C-1.34 2.01 -0.68 1.02 0 0 Z " fill="#B5B5B5" transform="translate(73,111)"/>
<path d="M0 0 C0.66 0.33 1.32 0.66 2 1 C2 3.33333333 2 5.66666667 2 8 C1.01 8 0.02 8 -1 8 C-1.04241723 5.66705225 -1.04092937 3.33297433 -1 1 C-0.67 0.67 -0.34 0.34 0 0 Z " fill="#8D8D8D" transform="translate(195,12)"/>
<path d="M0 0 C0.33 1.65 0.66 3.3 1 5 C-0.65 4.67 -2.3 4.34 -4 4 C-4.33 3.01 -4.66 2.02 -5 1 C-3 0 -3 0 0 0 Z " fill="#131313" transform="translate(83,113)"/>
<path d="M0 0 C3.00617269 3.00617269 2.59585316 5.82381598 3 10 C2.67 9.34 2.34 8.68 2 8 C1.34 8 0.68 8 0 8 C-0.79953138 4.71303767 -1.09658936 3.28976808 0 0 Z " fill="#1E1E1E" transform="translate(124,96)"/>
<path d="M0 0 C1.125 3.75 1.125 3.75 0 6 C-0.99 5.67 -1.98 5.34 -3 5 C-3.6875 2.9375 -3.6875 2.9375 -4 1 C-2.68 1.33 -1.36 1.66 0 2 C0 1.34 0 0.68 0 0 Z " fill="#CDCDCD" transform="translate(173,159)"/>
<path d="M0 0 C2.97 0.495 2.97 0.495 6 1 C4.68 1.33 3.36 1.66 2 2 C2 4.31 2 6.62 2 9 C-0.29013653 5.5647952 -0.17842973 4.014669 0 0 Z " fill="#C9C9C9" transform="translate(48,124)"/>
<path d="M0 0 C3.79588866 0.54226981 5.47211993 2.20127563 8 5 C7.67 5.66 7.34 6.32 7 7 C6.34 7 5.68 7 5 7 C4.731875 6.401875 4.46375 5.80375 4.1875 5.1875 C3.01506533 3.02775192 1.80630718 1.64209744 0 0 Z " fill="#7C7C7C" transform="translate(56,117)"/>
<path d="M0 0 C0.99 0 1.98 0 3 0 C3.66 1.98 4.32 3.96 5 6 C3.68 5.67 2.36 5.34 1 5 C0.67 3.35 0.34 1.7 0 0 Z " fill="#050505" transform="translate(138,105)"/>
<path d="M0 0 C1.65 0 3.3 0 5 0 C4.67 0.99 4.34 1.98 4 3 C4.66 3.33 5.32 3.66 6 4 C4.68 4.33 3.36 4.66 2 5 C2 4.34 2 3.68 2 3 C1.34 3 0.68 3 0 3 C0 2.01 0 1.02 0 0 Z " fill="#C1C1C1" transform="translate(132,96)"/>
<path d="M0 0 C0.33 0 0.66 0 1 0 C1.33 4.29 1.66 8.58 2 13 C0.68 12.34 -0.64 11.68 -2 11 C-1.34 10.67 -0.68 10.34 0 10 C0 6.7 0 3.4 0 0 Z " fill="#1C1C1C" transform="translate(128,75)"/>
<path d="M0 0 C2.0625 1.75 2.0625 1.75 4 4 C3.75 6.25 3.75 6.25 3 8 C3 7.01 3 6.02 3 5 C1.68 5.33 0.36 5.66 -1 6 C-0.67 4.02 -0.34 2.04 0 0 Z " fill="#454545" transform="translate(123,75)"/>
<path d="M0 0 C2.0625 0.4375 2.0625 0.4375 4 1 C3.01 2.485 3.01 2.485 2 4 C1.01 4 0.02 4 -1 4 C-1.33 4.66 -1.66 5.32 -2 6 C-1.125 1.125 -1.125 1.125 0 0 Z " fill="#272727" transform="translate(88,59)"/>
<path d="M0 0 C-0.99 1.32 -1.98 2.64 -3 4 C-4.32 3.67 -5.64 3.34 -7 3 C-7 2.01 -7 1.02 -7 0 C-2.25 -1.125 -2.25 -1.125 0 0 Z " fill="#C1C1C1" transform="translate(116,33)"/>
<path d="M0 0 C1.5 1.375 1.5 1.375 3 3 C3 3.66 3 4.32 3 5 C1.125 5.625 1.125 5.625 -1 6 C-1.66 5.34 -2.32 4.68 -3 4 C-2.01 2.68 -1.02 1.36 0 0 Z " fill="#D7D7D7" transform="translate(36,170)"/>
<path d="M0 0 C0.66 0 1.32 0 2 0 C3.6875 2.375 3.6875 2.375 5 5 C4.67 5.66 4.34 6.32 4 7 C3.01 7 2.02 7 1 7 C0.67 4.69 0.34 2.38 0 0 Z " fill="#1A1A1A" transform="translate(113,158)"/>
<path d="M0 0 C1.32 0 2.64 0 4 0 C4 1.65 4 3.3 4 5 C3.67 4.34 3.34 3.68 3 3 C2.34 3 1.68 3 1 3 C0.67 3.99 0.34 4.98 0 6 C0 4.02 0 2.04 0 0 Z " fill="#6D6D6D" transform="translate(112,147)"/>
<path d="M0 0 C1.32 0.66 2.64 1.32 4 2 C4 1.34 4 0.68 4 0 C4.66 0.33 5.32 0.66 6 1 C5 3 5 3 3.15234375 3.6328125 C2.42144531 3.79523438 1.69054687 3.95765625 0.9375 4.125 C0.20402344 4.29257813 -0.52945313 4.46015625 -1.28515625 4.6328125 C-1.85105469 4.75398438 -2.41695313 4.87515625 -3 5 C-3 4.34 -3 3.68 -3 3 C-2.01 3 -1.02 3 0 3 C0 2.01 0 1.02 0 0 Z " fill="#7C7C7C" transform="translate(82,109)"/>
<path d="M0 0 C1.32 0 2.64 0 4 0 C4 0.99 4 1.98 4 3 C4.66 3.33 5.32 3.66 6 4 C4.02 4 2.04 4 0 4 C0 2.68 0 1.36 0 0 Z " fill="#B2B2B2" transform="translate(105,99)"/>
<path d="M0 0 C0.66 0.33 1.32 0.66 2 1 C2.625 3.5625 2.625 3.5625 3 6 C1.0625 5.1875 1.0625 5.1875 -1 4 C-1.33 3.01 -1.66 2.02 -2 1 C-1.34 0.67 -0.68 0.34 0 0 Z " fill="#ACACAC" transform="translate(97,85)"/>
<path d="M0 0 C2.97 0.495 2.97 0.495 6 1 C6 2.65 6 4.3 6 6 C5.34 5.67 4.68 5.34 4 5 C4 4.34 4 3.68 4 3 C3.34 3 2.68 3 2 3 C2 2.34 2 1.68 2 1 C1.34 0.67 0.68 0.34 0 0 Z " fill="#353535" transform="translate(114,38)"/>
<path d="M0 0 C1.32 0.99 2.64 1.98 4 3 C2.35 4.65 0.7 6.3 -1 8 C-1.125 2.25 -1.125 2.25 0 0 Z " fill="#BBBBBB" transform="translate(89,31)"/>
</svg>
